<svg width="1440" height="973" viewBox="0 0 1440 973" fill="none" xmlns="http://www.w3.org/2000/svg">
<g opacity="0.1">
<mask id="mask0_2002_8143" style="mask-type:luminance" maskUnits="userSpaceOnUse" x="-87" y="-178" width="1781" height="1151">
<path d="M1693.47 -178H-87V972.92H1693.47V-178Z" fill="white"/>
</mask>
<g mask="url(#mask0_2002_8143)">
<path d="M2.16211 -178V434.325" stroke="white" stroke-width="0.464381"/>
<path d="M31.8809 -178V434.325" stroke="white" stroke-width="0.464381"/>
<path d="M61.6016 -178V434.325" stroke="white" stroke-width="0.464381"/>
<path d="M91.3223 -178V434.325" stroke="white" stroke-width="0.464381"/>
<path d="M121.043 -178V434.325" stroke="white" stroke-width="0.464381"/>
<path d="M150.764 -178V434.325" stroke="white" stroke-width="0.464381"/>
<path d="M180.482 -178V434.325" stroke="white" stroke-width="0.464381"/>
<path d="M210.203 -178V434.325" stroke="white" stroke-width="0.464381"/>
<path d="M239.924 -178V434.325" stroke="white" stroke-width="0.464381"/>
<path d="M269.645 -178V434.325" stroke="white" stroke-width="0.464381"/>
<path d="M299.365 -178V434.325" stroke="white" stroke-width="0.464381"/>
<path d="M329.086 -178V434.325" stroke="white" stroke-width="0.464381"/>
<path d="M358.807 -178V434.325" stroke="white" stroke-width="0.464381"/>
<path d="M388.525 -178V434.325" stroke="white" stroke-width="0.464381"/>
<path d="M418.246 -178V434.325" stroke="white" stroke-width="0.464381"/>
<path d="M447.967 -178V434.325" stroke="white" stroke-width="0.464381"/>
<path d="M477.688 -178V434.325" stroke="white" stroke-width="0.464381"/>
<path d="M507.408 -178V434.325" stroke="white" stroke-width="0.464381"/>
<path d="M537.129 -178V434.325" stroke="white" stroke-width="0.464381"/>
<path d="M566.85 -178V434.325" stroke="white" stroke-width="0.464381"/>
<path d="M596.568 -178V434.325" stroke="white" stroke-width="0.464381"/>
<path d="M626.289 -178V434.325" stroke="white" stroke-width="0.464381"/>
<path d="M656.01 -178V434.325" stroke="white" stroke-width="0.464381"/>
<path d="M685.73 -178V434.325" stroke="white" stroke-width="0.464381"/>
<path d="M715.451 -178V434.325" stroke="white" stroke-width="0.464381"/>
<path d="M745.172 -178V434.325" stroke="white" stroke-width="0.464381"/>
<path d="M774.893 -178V434.325" stroke="white" stroke-width="0.464381"/>
<path d="M804.611 -178V434.325" stroke="white" stroke-width="0.464381"/>
<path d="M834.332 -178V434.325" stroke="white" stroke-width="0.464381"/>
<path d="M864.053 -178V434.325" stroke="white" stroke-width="0.464381"/>
<path d="M893.773 -178V434.325" stroke="white" stroke-width="0.464381"/>
<path d="M923.492 -178V434.325" stroke="white" stroke-width="0.464381"/>
<path d="M953.215 -178V434.325" stroke="white" stroke-width="0.464381"/>
<path d="M982.936 -178V434.325" stroke="white" stroke-width="0.464381"/>
<path d="M1012.65 -178V434.325" stroke="white" stroke-width="0.464381"/>
<path d="M1042.38 -178V434.325" stroke="white" stroke-width="0.464381"/>
<path d="M1072.09 -178V434.325" stroke="white" stroke-width="0.464381"/>
<path d="M1101.82 -178V434.325" stroke="white" stroke-width="0.464381"/>
<path d="M1131.54 -178V434.325" stroke="white" stroke-width="0.464381"/>
<path d="M1161.26 -178V434.325" stroke="white" stroke-width="0.464381"/>
<path d="M1190.98 -178V434.325" stroke="white" stroke-width="0.464381"/>
<path d="M1220.7 -178V434.325" stroke="white" stroke-width="0.464381"/>
<path d="M1250.42 -178V434.325" stroke="white" stroke-width="0.464381"/>
<path d="M1280.14 -178V434.325" stroke="white" stroke-width="0.464381"/>
<path d="M1309.86 -178V434.325" stroke="white" stroke-width="0.464381"/>
</g>
<mask id="mask1_2002_8143" style="mask-type:luminance" maskUnits="userSpaceOnUse" x="-87" y="-179" width="1781" height="1152">
<path d="M1693.75 -178.32H-86.7227V972.6H1693.75V-178.32Z" fill="white"/>
</mask>
<g mask="url(#mask1_2002_8143)">
<path d="M-86.7227 0.00195312L1693.74 0.00195313" stroke="white" stroke-width="0.464381"/>
<path d="M-86.7227 29.7227H1693.74" stroke="white" stroke-width="0.464381"/>
<path d="M-86.7227 59.4424H1693.74" stroke="white" stroke-width="0.464381"/>
<path d="M-86.7227 89.1631H1693.74" stroke="white" stroke-width="0.464381"/>
<path d="M-86.7227 118.884H1693.74" stroke="white" stroke-width="0.464381"/>
<path d="M-86.7227 148.604H1693.74" stroke="white" stroke-width="0.464381"/>
<path d="M-86.7227 178.324H1693.74" stroke="white" stroke-width="0.464381"/>
<path d="M-86.7227 208.045H1693.74" stroke="white" stroke-width="0.464381"/>
<path d="M-86.7227 237.766H1693.74" stroke="white" stroke-width="0.464381"/>
<path d="M-86.7227 267.485H1693.74" stroke="white" stroke-width="0.464381"/>
<path d="M-86.7227 297.206H1693.74" stroke="white" stroke-width="0.464381"/>
<path d="M-86.7227 326.927H1693.74" stroke="white" stroke-width="0.464381"/>
<path d="M-86.7227 356.646H1693.74" stroke="white" stroke-width="0.464381"/>
<path d="M-86.7227 386.367H1693.74" stroke="white" stroke-width="0.464381"/>
<path d="M-86.7227 416.088H1693.74" stroke="white" stroke-width="0.464381"/>
<path d="M-86.7227 445.808H1693.74" stroke="white" stroke-width="0.464381"/>
<path d="M-86.7227 475.528H1693.74" stroke="white" stroke-width="0.464381"/>
<path d="M-86.7227 505.249H1693.74" stroke="white" stroke-width="0.464381"/>
<path d="M-86.7227 534.969H1693.74" stroke="white" stroke-width="0.464381"/>
<path d="M-86.7227 564.689H1693.74" stroke="white" stroke-width="0.464381"/>
<path d="M-86.7227 594.41H1693.74" stroke="white" stroke-width="0.464381"/>
<path d="M-86.7227 624.13H1693.74" stroke="white" stroke-width="0.464381"/>
<path d="M-86.7227 653.851H1693.74" stroke="white" stroke-width="0.464381"/>
<path d="M-86.7227 683.571H1693.74" stroke="white" stroke-width="0.464381"/>
<path d="M-86.7227 713.291H1693.74" stroke="white" stroke-width="0.464381"/>
<path d="M-86.7227 743.012H1693.74" stroke="white" stroke-width="0.464381"/>
<path d="M-86.7227 772.732H1693.74" stroke="white" stroke-width="0.464381"/>
<path d="M-86.7227 802.453H1693.74" stroke="white" stroke-width="0.464381"/>
<path d="M-86.7227 832.173H1693.74" stroke="white" stroke-width="0.464381"/>
<path d="M-86.7227 861.894H1693.74" stroke="white" stroke-width="0.464381"/>
<path d="M-86.7227 891.613H1693.74" stroke="white" stroke-width="0.464381"/>
<path d="M-86.7227 921.334H1693.74" stroke="white" stroke-width="0.464381"/>
<path d="M-86.7227 951.055H1693.74" stroke="white" stroke-width="0.464381"/>
</g>
</g>
</svg>