
<svg width="1440" height="1040" viewBox="0 0 1440 1040" fill="none" xmlns="http://www.w3.org/2000/svg">
<g clip-path="url(#clip0_2004_7454)">
<ellipse cx="814.518" cy="173.454" rx="0.998444" ry="0.29062" fill="white"/>
<ellipse cx="138.242" cy="216.986" rx="1.09582" ry="0.318964" fill="white" fill-opacity="0.8"/>
<ellipse cx="989.384" cy="216.977" rx="1.06521" ry="0.310053" fill="white" fill-opacity="0.75"/>
<ellipse cx="978.291" cy="80.0472" rx="0.970581" ry="0.28251" fill="white"/>
<ellipse cx="466.019" cy="142.55" rx="1.23545" ry="0.359607" fill="white" fill-opacity="0.8"/>
<ellipse cx="958.916" cy="122.082" rx="0.992017" ry="0.288749" fill="white"/>
<ellipse cx="1142.87" cy="57.4089" rx="0.884648" ry="0.257497" fill="white" fill-opacity="0.75"/>
<ellipse cx="1138.65" cy="73.1331" rx="0.863264" ry="0.251273" fill="white"/>
<ellipse cx="371.102" cy="152.293" rx="0.912473" ry="0.265596" fill="white" fill-opacity="0.85"/>
<ellipse cx="645.479" cy="230.934" rx="0.87138" ry="0.253635" fill="white" fill-opacity="0.75"/>
<ellipse cx="932.117" cy="31.2083" rx="1.23247" ry="0.358738" fill="white" fill-opacity="0.75"/>
<ellipse cx="574.696" cy="198.523" rx="0.998845" ry="0.290737" fill="white" fill-opacity="0.75"/>
<ellipse cx="853.561" cy="182.853" rx="1.19412" ry="0.347575" fill="white"/>
<ellipse cx="112.944" cy="123.603" rx="1.14897" ry="0.334435" fill="white" fill-opacity="0.8"/>
<ellipse cx="365.172" cy="127.215" rx="0.886702" ry="0.258095" fill="white" fill-opacity="0.85"/>
<ellipse cx="967.428" cy="198.789" rx="1.07053" ry="0.311602" fill="white" fill-opacity="0.75"/>
<ellipse cx="388.242" cy="216.762" rx="1.16802" ry="0.339979" fill="white" fill-opacity="0.75"/>
<ellipse cx="372.967" cy="236.899" rx="1.10798" ry="0.322503" fill="white" fill-opacity="0.8"/>
<ellipse cx="297.857" cy="160.958" rx="1.12635" ry="0.327848" fill="white"/>
<ellipse cx="382.887" cy="53.9582" rx="0.856194" ry="0.249214" fill="white"/>
<ellipse cx="552.737" cy="98.7281" rx="0.984929" ry="0.286686" fill="white" fill-opacity="0.85"/>
<ellipse cx="1253.57" cy="138.045" rx="0.950653" ry="0.276709" fill="white" fill-opacity="0.75"/>
<ellipse cx="380.57" cy="78.1133" rx="1.08711" ry="0.316428" fill="white"/>
<ellipse cx="1110.05" cy="155.752" rx="0.977975" ry="0.284662" fill="white" fill-opacity="0.85"/>
<ellipse cx="1194.61" cy="206.415" rx="1.09509" ry="0.31875" fill="white"/>
<ellipse cx="621.043" cy="178.588" rx="0.909901" ry="0.264847" fill="white"/>
<ellipse cx="733.307" cy="168.74" rx="0.851551" ry="0.247863" fill="white" fill-opacity="0.8"/>
<ellipse cx="689.521" cy="217.2" rx="0.990222" ry="0.288227" fill="white"/>
<ellipse cx="470.838" cy="233.425" rx="0.994599" ry="0.289501" fill="white" fill-opacity="0.8"/>
<ellipse cx="370.264" cy="235.86" rx="0.918067" ry="0.267224" fill="white"/>
<ellipse cx="461.525" cy="75.1341" rx="0.994104" ry="0.289357" fill="white"/>
<ellipse cx="1078.79" cy="91.1022" rx="0.968473" ry="0.281896" fill="white" fill-opacity="0.75"/>
<ellipse cx="998.682" cy="196.339" rx="1.08602" ry="0.316112" fill="white"/>
<ellipse cx="405.929" cy="215.519" rx="1.11081" ry="0.323327" fill="white" fill-opacity="0.8"/>
<ellipse cx="246.271" cy="171.751" rx="1.05428" ry="0.306871" fill="white" fill-opacity="0.75"/>
<ellipse cx="1176.95" cy="75.4349" rx="1.17865" ry="0.343072" fill="white" fill-opacity="0.85"/>
<ellipse cx="1117.87" cy="66.3562" rx="1.22694" ry="0.357129" fill="white" fill-opacity="0.75"/>
<ellipse cx="1023.32" cy="218.254" rx="1.23068" ry="0.358218" fill="white"/>
<ellipse cx="153.21" cy="169.728" rx="0.866356" ry="0.252172" fill="white" fill-opacity="0.85"/>
<ellipse cx="700.771" cy="195.896" rx="1.25916" ry="0.366507" fill="white" fill-opacity="0.75"/>
<ellipse cx="164.326" cy="111.523" rx="1.01789" ry="0.296279" fill="white"/>
<ellipse cx="1225.85" cy="224.362" rx="1.10202" ry="0.320767" fill="white" fill-opacity="0.75"/>
<ellipse cx="736.843" cy="99.479" rx="1.01485" ry="0.295394" fill="white" fill-opacity="0.85"/>
<ellipse cx="782.337" cy="43.1545" rx="0.899917" ry="0.261941" fill="white"/>
<ellipse cx="543.467" cy="221.629" rx="1.00771" ry="0.293318" fill="white" fill-opacity="0.75"/>
<ellipse cx="369.752" cy="160.747" rx="1.24984" ry="0.363796" fill="white"/>
<ellipse cx="1191.01" cy="215.2" rx="0.864439" ry="0.251614" fill="white"/>
<ellipse cx="892.431" cy="231.283" rx="1.23568" ry="0.359671" fill="white" fill-opacity="0.85"/>
<ellipse cx="290.198" cy="102.197" rx="1.07479" ry="0.312843" fill="white" fill-opacity="0.85"/>
<ellipse cx="219.979" cy="222.346" rx="0.939954" ry="0.273595" fill="white" fill-opacity="0.75"/>
<ellipse cx="130.698" cy="139.093" rx="1.17672" ry="0.342509" fill="white" fill-opacity="0.85"/>
<ellipse cx="1198.84" cy="217.972" rx="1.11249" ry="0.323815" fill="white" fill-opacity="0.75"/>
<ellipse cx="78.2358" cy="73.9295" rx="1.06976" ry="0.311379" fill="white"/>
<ellipse cx="1206.46" cy="102.707" rx="1.14096" ry="0.332103" fill="white" fill-opacity="0.75"/>
<ellipse cx="693.885" cy="240.093" rx="1.11955" ry="0.32587" fill="white" fill-opacity="0.85"/>
<ellipse cx="975.195" cy="166.396" rx="1.2473" ry="0.363055" fill="white" fill-opacity="0.75"/>
<ellipse cx="809.54" cy="220.424" rx="1.07921" ry="0.314128" fill="white" fill-opacity="0.8"/>
<ellipse cx="111.365" cy="225.39" rx="1.25758" ry="0.366047" fill="white"/>
<ellipse cx="188.772" cy="67.018" rx="0.971197" ry="0.282689" fill="white" fill-opacity="0.75"/>
<ellipse cx="537.527" cy="104.872" rx="0.989814" ry="0.288108" fill="white" fill-opacity="0.8"/>
<ellipse cx="894.683" cy="83.48" rx="0.958053" ry="0.278863" fill="white"/>
<ellipse cx="118.837" cy="104.669" rx="1.12211" ry="0.326614" fill="white" fill-opacity="0.75"/>
<ellipse cx="364.482" cy="69.0059" rx="1.04021" ry="0.302777" fill="white" fill-opacity="0.75"/>
<ellipse cx="70.4517" cy="183.493" rx="0.877482" ry="0.255411" fill="white"/>
<ellipse cx="248.819" cy="216.974" rx="1.05549" ry="0.307224" fill="white" fill-opacity="0.85"/>
<ellipse cx="67.4197" cy="165.161" rx="1.21856" ry="0.354689" fill="white" fill-opacity="0.85"/>
<ellipse cx="925.242" cy="194.62" rx="1.1035" ry="0.3212" fill="white"/>
<ellipse cx="1182.95" cy="164.928" rx="1.26101" ry="0.367045" fill="white" fill-opacity="0.85"/>
<ellipse cx="687.828" cy="97.011" rx="0.984078" ry="0.286438" fill="white"/>
<ellipse cx="1112.83" cy="183.357" rx="1.2385" ry="0.360492" fill="white" fill-opacity="0.75"/>
<ellipse cx="1234.95" cy="37.2591" rx="0.900099" ry="0.261994" fill="white"/>
<ellipse cx="552" cy="120.392" rx="1.09153" ry="0.317716" fill="white" fill-opacity="0.75"/>
<ellipse cx="232.696" cy="35.8074" rx="0.988902" ry="0.287842" fill="white" fill-opacity="0.8"/>
<ellipse cx="522.58" cy="219.728" rx="1.24055" ry="0.361091" fill="white" fill-opacity="0.85"/>
<ellipse cx="171.923" cy="129.214" rx="1.00738" ry="0.293222" fill="white"/>
<ellipse cx="554.311" cy="243.714" rx="0.888654" ry="0.258663" fill="white" fill-opacity="0.75"/>
<ellipse cx="138.128" cy="207.37" rx="0.981275" ry="0.285622" fill="white" fill-opacity="0.85"/>
<ellipse cx="340.641" cy="190.367" rx="0.848065" ry="0.246848" fill="white"/>
<ellipse cx="578.063" cy="241.534" rx="0.992275" ry="0.288824" fill="white"/>
<ellipse cx="1037.46" cy="124.307" rx="1.02958" ry="0.299681" fill="white" fill-opacity="0.8"/>
<ellipse cx="656.63" cy="89.6488" rx="1.02443" ry="0.298183" fill="white" fill-opacity="0.85"/>
<ellipse cx="233.537" cy="117.902" rx="0.987959" ry="0.287568" fill="white" fill-opacity="0.85"/>
<ellipse cx="430.518" cy="205.957" rx="1.2079" ry="0.351587" fill="white" fill-opacity="0.75"/>
<ellipse cx="1217.19" cy="26.1944" rx="0.889182" ry="0.258817" fill="white" fill-opacity="0.75"/>
<ellipse cx="1161.68" cy="187.253" rx="1.12761" ry="0.328217" fill="white" fill-opacity="0.75"/>
<ellipse cx="273.369" cy="132.447" rx="1.13073" ry="0.329125" fill="white"/>
<ellipse cx="1224.95" cy="37.7982" rx="1.06136" ry="0.308933" fill="white"/>
<ellipse cx="522.565" cy="237.914" rx="1.22514" ry="0.356603" fill="white" fill-opacity="0.75"/>
<ellipse cx="203.963" cy="214.489" rx="0.965311" ry="0.280976" fill="white" fill-opacity="0.85"/>
<ellipse cx="470.739" cy="187.432" rx="0.895613" ry="0.260688" fill="white" fill-opacity="0.75"/>
<ellipse cx="1245.25" cy="207.149" rx="1.0884" ry="0.316803" fill="white"/>
<ellipse cx="473.394" cy="192.141" rx="1.02104" ry="0.297198" fill="white" fill-opacity="0.8"/>
<ellipse cx="167.908" cy="75.6938" rx="1.2261" ry="0.356885" fill="white" fill-opacity="0.75"/>
<ellipse cx="193.137" cy="49.8581" rx="1.11961" ry="0.325887" fill="white"/>
<ellipse cx="841.487" cy="224.078" rx="0.961666" ry="0.279914" fill="white"/>
<ellipse cx="792.775" cy="162.701" rx="1.21644" ry="0.354073" fill="white" fill-opacity="0.85"/>
<ellipse cx="766.507" cy="33.3912" rx="1.1259" ry="0.327717" fill="white" fill-opacity="0.85"/>
<ellipse cx="102.574" cy="103.87" rx="0.900441" ry="0.262094" fill="white"/>
<ellipse cx="293.481" cy="80.0463" rx="0.967694" ry="0.281669" fill="white" fill-opacity="0.8"/>
<ellipse cx="267.262" cy="145.902" rx="0.926026" ry="0.269541" fill="white" fill-opacity="0.85"/>
<ellipse cx="124.796" cy="194.881" rx="1.15962" ry="0.337535" fill="white" fill-opacity="0.8"/>
<ellipse cx="1196.24" cy="230.241" rx="1.03952" ry="0.302576" fill="white" fill-opacity="0.85"/>
<ellipse cx="589.012" cy="190.152" rx="0.943619" ry="0.274662" fill="white" fill-opacity="0.8"/>
<ellipse cx="150.192" cy="82.09" rx="1.23847" ry="0.360484" fill="white"/>
<ellipse cx="423.772" cy="202.277" rx="1.22563" ry="0.356747" fill="white" fill-opacity="0.85"/>
<ellipse cx="963.368" cy="185.318" rx="1.22773" ry="0.357358" fill="white"/>
<ellipse cx="160.093" cy="230.715" rx="0.983222" ry="0.286189" fill="white" fill-opacity="0.85"/>
<ellipse cx="629.578" cy="151.824" rx="0.993694" ry="0.289237" fill="white" fill-opacity="0.8"/>
<ellipse cx="371.892" cy="232.647" rx="0.858905" ry="0.250004" fill="white" fill-opacity="0.85"/>
<ellipse cx="491.937" cy="224.087" rx="0.991772" ry="0.288678" fill="white"/>
<ellipse cx="1063.67" cy="29.4424" rx="1.07044" ry="0.311576" fill="white"/>
<ellipse cx="867.889" cy="105.671" rx="1.18621" ry="0.345273" fill="white" fill-opacity="0.75"/>
<ellipse cx="405.122" cy="133.187" rx="1.14785" ry="0.334107" fill="white"/>
<ellipse cx="1093.06" cy="72.644" rx="0.867201" ry="0.252418" fill="white" fill-opacity="0.8"/>
<ellipse cx="959.052" cy="245.997" rx="1.12826" ry="0.328405" fill="white" fill-opacity="0.75"/>
<ellipse cx="1015.74" cy="230.796" rx="1.26291" ry="0.367598" fill="white"/>
<ellipse cx="435.582" cy="154.835" rx="1.21089" ry="0.352458" fill="white" fill-opacity="0.75"/>
<ellipse cx="344.213" cy="211.315" rx="1.04485" ry="0.304127" fill="white"/>
<ellipse cx="692.206" cy="193.896" rx="1.14592" ry="0.333546" fill="white" fill-opacity="0.8"/>
<ellipse cx="208.196" cy="78.5726" rx="0.98095" ry="0.285528" fill="white" fill-opacity="0.75"/>
<ellipse cx="125.602" cy="103.694" rx="1.13939" ry="0.331644" fill="white"/>
<ellipse cx="413.458" cy="60.6523" rx="1.04984" ry="0.30558" fill="white" fill-opacity="0.75"/>
<ellipse cx="1075.4" cy="186.219" rx="0.951841" ry="0.277055" fill="white" fill-opacity="0.8"/>
<ellipse cx="1127.66" cy="135.562" rx="0.852968" ry="0.248276" fill="white" fill-opacity="0.8"/>
<ellipse cx="874.617" cy="136.63" rx="1.15056" ry="0.334897" fill="white" fill-opacity="0.75"/>
<ellipse cx="994.361" cy="39.7469" rx="0.999191" ry="0.290837" fill="white" fill-opacity="0.75"/>
<ellipse cx="473.52" cy="93.6152" rx="1.14744" ry="0.333987" fill="white" fill-opacity="0.75"/>
<ellipse cx="131.309" cy="78.3168" rx="0.944145" ry="0.274815" fill="white" fill-opacity="0.75"/>
<ellipse cx="129.718" cy="243.019" rx="1.03783" ry="0.302083" fill="white"/>
<ellipse cx="802.079" cy="161.23" rx="1.22547" ry="0.356702" fill="white"/>
<ellipse cx="866.817" cy="68.2427" rx="0.957804" ry="0.278791" fill="white" fill-opacity="0.85"/>
<ellipse cx="301.028" cy="215.708" rx="0.924633" ry="0.269135" fill="white" fill-opacity="0.75"/>
<ellipse cx="137.209" cy="245.202" rx="0.922339" ry="0.268467" fill="white"/>
<ellipse cx="385.787" cy="73.7321" rx="1.22668" ry="0.357052" fill="white" fill-opacity="0.85"/>
<ellipse cx="927.928" cy="136.662" rx="1.26025" ry="0.366824" fill="white" fill-opacity="0.75"/>
<ellipse cx="915.718" cy="59.861" rx="0.874438" ry="0.254525" fill="white" fill-opacity="0.75"/>
<ellipse cx="519.732" cy="169.744" rx="0.923427" ry="0.268784" fill="white" fill-opacity="0.8"/>
<ellipse cx="1056.85" cy="139.528" rx="0.980218" ry="0.285315" fill="white"/>
<ellipse cx="968.294" cy="44.9343" rx="1.09284" ry="0.318095" fill="white" fill-opacity="0.75"/>
<ellipse cx="709.16" cy="81.1015" rx="1.21431" ry="0.353451" fill="white" fill-opacity="0.85"/>
<ellipse cx="242.081" cy="127.022" rx="1.08085" ry="0.314607" fill="white" fill-opacity="0.75"/>
<ellipse cx="1209.1" cy="208.173" rx="1.22937" ry="0.357837" fill="white"/>
<ellipse cx="986.982" cy="183.839" rx="1.21036" ry="0.352302" fill="white" fill-opacity="0.75"/>
<ellipse cx="1068.94" cy="121.913" rx="1.26113" ry="0.36708" fill="white" fill-opacity="0.85"/>
<ellipse cx="219.301" cy="236.162" rx="1.10522" ry="0.321699" fill="white" fill-opacity="0.75"/>
<ellipse cx="534.181" cy="167.313" rx="1.01732" ry="0.296113" fill="white"/>
<ellipse cx="924.522" cy="157.298" rx="1.22702" ry="0.357152" fill="white"/>
<ellipse cx="779.291" cy="36.6228" rx="1.24405" ry="0.362108" fill="white" fill-opacity="0.85"/>
<ellipse cx="1098.16" cy="88.1469" rx="0.927596" ry="0.269998" fill="white"/>
<ellipse cx="1049.39" cy="115.978" rx="1.12456" ry="0.327328" fill="white" fill-opacity="0.75"/>
<ellipse cx="748.813" cy="149.904" rx="1.16085" ry="0.33789" fill="white" fill-opacity="0.8"/>
<ellipse cx="1252.77" cy="184.025" rx="0.997688" ry="0.2904" fill="white" fill-opacity="0.75"/>
<ellipse cx="688.808" cy="219.943" rx="1.1207" ry="0.326205" fill="white" fill-opacity="0.75"/>
<ellipse cx="1054.21" cy="46.1021" rx="0.884394" ry="0.257423" fill="white"/>
<ellipse cx="693.09" cy="31.4364" rx="1.15043" ry="0.334859" fill="white" fill-opacity="0.85"/>
<ellipse cx="212.529" cy="105.398" rx="1.0971" ry="0.319337" fill="white" fill-opacity="0.75"/>
<ellipse cx="42.1148" cy="141.818" rx="1.24763" ry="0.36315" fill="white" fill-opacity="0.8"/>
<ellipse cx="1008.69" cy="48.3336" rx="0.958095" ry="0.278875" fill="white"/>
<ellipse cx="859.388" cy="72.9585" rx="1.11897" ry="0.325702" fill="white" fill-opacity="0.8"/>
<ellipse cx="769.722" cy="88.4037" rx="0.96765" ry="0.281656" fill="white" fill-opacity="0.75"/>
<ellipse cx="547.82" cy="146.949" rx="1.14403" ry="0.332996" fill="white" fill-opacity="0.75"/>
<ellipse cx="442.206" cy="144.969" rx="1.08871" ry="0.316895" fill="white" fill-opacity="0.75"/>
<ellipse cx="751.378" cy="213.579" rx="1.21168" ry="0.352686" fill="white"/>
<ellipse cx="797.527" cy="217.176" rx="0.908088" ry="0.264319" fill="white"/>
<ellipse cx="1062.13" cy="147.213" rx="1.19157" ry="0.346832" fill="white"/>
<ellipse cx="125.491" cy="158.466" rx="1.0284" ry="0.29934" fill="white" fill-opacity="0.85"/>
<ellipse cx="256.237" cy="157.449" rx="0.898633" ry="0.261567" fill="white" fill-opacity="0.8"/>
<ellipse cx="711.475" cy="92.3297" rx="0.964965" ry="0.280875" fill="white" fill-opacity="0.85"/>
<ellipse cx="591.507" cy="63.8151" rx="0.925011" ry="0.269245" fill="white" fill-opacity="0.75"/>
<ellipse cx="47.9362" cy="125.57" rx="1.14907" ry="0.334463" fill="white" fill-opacity="0.85"/>
<ellipse cx="1066.89" cy="34.5515" rx="0.898236" ry="0.261452" fill="white"/>
<ellipse cx="862.036" cy="37.6018" rx="1.23536" ry="0.35958" fill="white" fill-opacity="0.75"/>
<ellipse cx="715.706" cy="161.163" rx="0.997014" ry="0.290203" fill="white" fill-opacity="0.85"/>
<ellipse cx="901.389" cy="230.69" rx="0.898801" ry="0.261616" fill="white"/>
<ellipse cx="1107.72" cy="117.961" rx="1.19195" ry="0.346943" fill="white"/>
<ellipse cx="736.943" cy="52.5549" rx="1.11452" ry="0.324406" fill="white"/>
<ellipse cx="242.232" cy="27.5208" rx="1.23235" ry="0.358702" fill="white"/>
<ellipse cx="305.246" cy="87.8944" rx="0.925685" ry="0.269441" fill="white" fill-opacity="0.85"/>
<ellipse cx="1117" cy="198.086" rx="1.19178" ry="0.346893" fill="white" fill-opacity="0.85"/>
<ellipse cx="158.289" cy="156.707" rx="0.884398" ry="0.257424" fill="white" fill-opacity="0.85"/>
<ellipse cx="1252.91" cy="173.003" rx="1.13444" ry="0.330203" fill="white" fill-opacity="0.75"/>
<ellipse cx="958.061" cy="41.2258" rx="1.01402" ry="0.295155" fill="white" fill-opacity="0.75"/>
<ellipse cx="683.819" cy="187.035" rx="1.20766" ry="0.351517" fill="white" fill-opacity="0.85"/>
<ellipse cx="297.12" cy="156.563" rx="1.23309" ry="0.358918" fill="white" fill-opacity="0.75"/>
<ellipse cx="373.752" cy="148.145" rx="1.01545" ry="0.295569" fill="white"/>
<ellipse cx="921.873" cy="100.978" rx="1.10946" ry="0.322935" fill="white" fill-opacity="0.75"/>
<ellipse cx="1209.04" cy="86.2495" rx="1.17247" ry="0.341275" fill="white" fill-opacity="0.8"/>
<ellipse cx="133.09" cy="28.9324" rx="1.01932" ry="0.296695" fill="white"/>
<ellipse cx="827.335" cy="83.2902" rx="1.14784" ry="0.334106" fill="white"/>
<ellipse cx="443.889" cy="40.9963" rx="1.08449" ry="0.315666" fill="white" fill-opacity="0.85"/>
<ellipse cx="86.5129" cy="91.8199" rx="0.897666" ry="0.261286" fill="white" fill-opacity="0.8"/>
<ellipse cx="1022.2" cy="138.047" rx="0.957963" ry="0.278837" fill="white" fill-opacity="0.75"/>
<ellipse cx="1240.15" cy="220.414" rx="1.04584" ry="0.304415" fill="white" fill-opacity="0.75"/>
<ellipse cx="533.484" cy="108.61" rx="1.14572" ry="0.333486" fill="white"/>
<ellipse cx="100.307" cy="53.0672" rx="1.18029" ry="0.343551" fill="white"/>
<ellipse cx="585.076" cy="80.8637" rx="1.25974" ry="0.366676" fill="white"/>
<ellipse cx="932.025" cy="210.116" rx="1.13994" ry="0.331806" fill="white" fill-opacity="0.85"/>
<ellipse cx="184.537" cy="213.754" rx="0.970729" ry="0.282553" fill="white"/>
<ellipse cx="607.676" cy="98.7433" rx="1.0371" ry="0.30187" fill="white" fill-opacity="0.85"/>
<ellipse cx="524.217" cy="162.441" rx="1.17428" ry="0.3418" fill="white" fill-opacity="0.75"/>
<ellipse cx="509.766" cy="80.8105" rx="1.07673" ry="0.313408" fill="white"/>
<ellipse cx="644.769" cy="43.9242" rx="0.987704" ry="0.287494" fill="white"/>
<ellipse cx="952.849" cy="85.668" rx="0.862276" ry="0.250985" fill="white" fill-opacity="0.8"/>
<ellipse cx="918.306" cy="233.402" rx="0.915432" ry="0.266457" fill="white"/>
<ellipse cx="461.643" cy="30.6829" rx="1.11154" ry="0.323539" fill="white"/>
<ellipse cx="1047.7" cy="181.112" rx="1.13315" ry="0.329829" fill="white" fill-opacity="0.85"/>
<ellipse cx="360.075" cy="171.442" rx="0.85002" ry="0.247418" fill="white" fill-opacity="0.8"/>
<ellipse cx="76.6185" cy="30.9363" rx="1.13998" ry="0.331815" fill="white" fill-opacity="0.75"/>
<ellipse cx="271.496" cy="133.127" rx="0.943541" ry="0.274639" fill="white"/>
<ellipse cx="407.562" cy="38.7761" rx="1.05594" ry="0.307354" fill="white" fill-opacity="0.75"/>
<ellipse cx="298.827" cy="138.624" rx="1.25247" ry="0.364559" fill="white"/>
<ellipse cx="239.512" cy="58.6863" rx="1.05936" ry="0.30835" fill="white"/>
<ellipse cx="225.291" cy="114.024" rx="1.17595" ry="0.342286" fill="white"/>
<ellipse cx="181.414" cy="223.161" rx="1.2046" ry="0.350626" fill="white" fill-opacity="0.85"/>
<ellipse cx="277.413" cy="43.4182" rx="0.940129" ry="0.273646" fill="white" fill-opacity="0.75"/>
<ellipse cx="1035.84" cy="54.2735" rx="1.09715" ry="0.319351" fill="white"/>
<ellipse cx="100.089" cy="47.1061" rx="0.961638" ry="0.279907" fill="white"/>
<ellipse cx="441.512" cy="246.275" rx="1.23871" ry="0.360553" fill="white"/>
<ellipse cx="556.327" cy="233.49" rx="1.21762" ry="0.354415" fill="white" fill-opacity="0.85"/>
<ellipse cx="595.756" cy="197.525" rx="0.941772" ry="0.274124" fill="white"/>
<ellipse cx="122.288" cy="92.1616" rx="1.21609" ry="0.353971" fill="white" fill-opacity="0.75"/>
<ellipse cx="295.975" cy="204.895" rx="0.929724" ry="0.270617" fill="white"/>
<ellipse cx="161.921" cy="233.707" rx="1.1258" ry="0.327689" fill="white" fill-opacity="0.75"/>
<ellipse cx="400.634" cy="99.1885" rx="0.875841" ry="0.254933" fill="white" fill-opacity="0.75"/>
<ellipse cx="259.724" cy="226.786" rx="0.995103" ry="0.289647" fill="white" fill-opacity="0.85"/>
<ellipse cx="668.359" cy="28.1747" rx="0.928879" ry="0.270371" fill="white" fill-opacity="0.85"/>
<ellipse cx="821.386" cy="49.1204" rx="1.11809" ry="0.325444" fill="white" fill-opacity="0.75"/>
<ellipse cx="814.632" cy="56.2467" rx="1.1126" ry="0.323847" fill="white" fill-opacity="0.75"/>
<ellipse cx="643.09" cy="167.8" rx="0.994562" ry="0.28949" fill="white" fill-opacity="0.85"/>
<ellipse cx="1001.08" cy="202.442" rx="0.95724" ry="0.278626" fill="white" fill-opacity="0.8"/>
<ellipse cx="357.534" cy="186.684" rx="0.856108" ry="0.24919" fill="white" fill-opacity="0.75"/>
<ellipse cx="1175.91" cy="150.841" rx="0.986425" ry="0.287121" fill="white"/>
<ellipse cx="676.16" cy="227.808" rx="1.12328" ry="0.326957" fill="white" fill-opacity="0.8"/>
<ellipse cx="560.254" cy="243.234" rx="0.912337" ry="0.265556" fill="white" fill-opacity="0.75"/>
<ellipse cx="998.621" cy="62.3639" rx="1.02548" ry="0.29849" fill="white" fill-opacity="0.85"/>
<ellipse cx="181.908" cy="134.33" rx="0.854937" ry="0.248849" fill="white" fill-opacity="0.8"/>
<ellipse cx="620.427" cy="70.0179" rx="1.13836" ry="0.331345" fill="white" fill-opacity="0.85"/>
<ellipse cx="1213.02" cy="184.006" rx="0.934036" ry="0.271872" fill="white" fill-opacity="0.75"/>
<ellipse cx="986.056" cy="70.0098" rx="1.11048" ry="0.323231" fill="white"/>
<ellipse cx="418.493" cy="57.4443" rx="1.00646" ry="0.292953" fill="white" fill-opacity="0.8"/>
<ellipse cx="1093.42" cy="170.08" rx="1.2331" ry="0.358923" fill="white"/>
<ellipse cx="40.3193" cy="112.78" rx="1.13961" ry="0.331709" fill="white" fill-opacity="0.85"/>
<ellipse cx="500.605" cy="81.8366" rx="1.21006" ry="0.352215" fill="white"/>
<ellipse cx="268.186" cy="57.4442" rx="1.00603" ry="0.292828" fill="white" fill-opacity="0.75"/>
<ellipse cx="827.927" cy="227.501" rx="0.895895" ry="0.26077" fill="white" fill-opacity="0.85"/>
<ellipse cx="1023.1" cy="58.9189" rx="1.00975" ry="0.293912" fill="white"/>
<ellipse cx="643.812" cy="165.306" rx="0.874682" ry="0.254596" fill="white" fill-opacity="0.8"/>
<ellipse cx="500.458" cy="187.234" rx="1.06397" ry="0.309693" fill="white" fill-opacity="0.75"/>
<ellipse cx="1092.52" cy="175.228" rx="1.19188" ry="0.346923" fill="white" fill-opacity="0.75"/>
<ellipse cx="242.935" cy="131.203" rx="1.09166" ry="0.317753" fill="white" fill-opacity="0.8"/>
<ellipse cx="144.055" cy="66.0463" rx="1.00449" ry="0.292378" fill="white" fill-opacity="0.8"/>
<ellipse cx="142.426" cy="176.423" rx="1.063" ry="0.309409" fill="white" fill-opacity="0.85"/>
<ellipse cx="1084.95" cy="66.3504" rx="1.20722" ry="0.35139" fill="white" fill-opacity="0.75"/>
<ellipse cx="439.757" cy="183.333" rx="1.1692" ry="0.340321" fill="white" fill-opacity="0.85"/>
<ellipse cx="937.935" cy="161.207" rx="1.14584" ry="0.333521" fill="white" fill-opacity="0.85"/>
<ellipse cx="774.74" cy="81.0129" rx="0.909874" ry="0.264839" fill="white"/>
<ellipse cx="854.958" cy="199.483" rx="0.9054" ry="0.263537" fill="white" fill-opacity="0.85"/>
<ellipse cx="618.63" cy="83.9911" rx="1.02644" ry="0.298769" fill="white"/>
<ellipse cx="867.592" cy="239.785" rx="0.888553" ry="0.258633" fill="white" fill-opacity="0.75"/>
<ellipse cx="360.35" cy="126.051" rx="1.12525" ry="0.327528" fill="white" fill-opacity="0.75"/>
<ellipse cx="296.763" cy="79.0324" rx="0.876159" ry="0.255026" fill="white" fill-opacity="0.75"/>
<ellipse cx="721.506" cy="181.282" rx="0.874893" ry="0.254657" fill="white" fill-opacity="0.75"/>
<ellipse cx="745.3" cy="240.564" rx="1.03848" ry="0.302273" fill="white" fill-opacity="0.75"/>
<ellipse cx="954.892" cy="169.586" rx="1.22057" ry="0.355276" fill="white" fill-opacity="0.75"/>
<ellipse cx="742.917" cy="114.271" rx="1.18428" ry="0.344712" fill="white" fill-opacity="0.75"/>
<ellipse cx="260.667" cy="122.352" rx="1.07951" ry="0.314216" fill="white" fill-opacity="0.85"/>
<ellipse cx="84.1729" cy="66.5605" rx="1.08695" ry="0.316381" fill="white" fill-opacity="0.75"/>
<ellipse cx="842.272" cy="57.6591" rx="0.902408" ry="0.262666" fill="white"/>
<ellipse cx="863.678" cy="35.8665" rx="1.19188" ry="0.346923" fill="white"/>
<ellipse cx="89.8947" cy="167.52" rx="0.888801" ry="0.258706" fill="white" fill-opacity="0.75"/>
<ellipse cx="180.422" cy="29.6849" rx="1.05465" ry="0.306979" fill="white" fill-opacity="0.75"/>
<ellipse cx="327.337" cy="147.908" rx="1.05354" ry="0.306657" fill="white" fill-opacity="0.8"/>
<ellipse cx="909.876" cy="147.38" rx="0.936848" ry="0.272691" fill="white" fill-opacity="0.75"/>
<ellipse cx="445.612" cy="88.1983" rx="1.10404" ry="0.321357" fill="white" fill-opacity="0.8"/>
<ellipse cx="1240.84" cy="70.9315" rx="0.905225" ry="0.263486" fill="white" fill-opacity="0.75"/>
<ellipse cx="282.541" cy="164.854" rx="1.00806" ry="0.293418" fill="white"/>
<ellipse cx="46.8662" cy="68.2376" rx="0.940375" ry="0.273717" fill="white" fill-opacity="0.75"/>
<ellipse cx="326.421" cy="244.481" rx="0.981103" ry="0.285572" fill="white" fill-opacity="0.8"/>
<ellipse cx="1136.24" cy="229.5" rx="1.02184" ry="0.297429" fill="white" fill-opacity="0.75"/>
<ellipse cx="473.25" cy="60.849" rx="0.876872" ry="0.255233" fill="white" fill-opacity="0.8"/>
<ellipse cx="638.749" cy="224.299" rx="0.887997" ry="0.258471" fill="white" fill-opacity="0.85"/>
<ellipse cx="534.334" cy="88.7078" rx="1.17032" ry="0.340649" fill="white"/>
<ellipse cx="1141.35" cy="77.8593" rx="1.06006" ry="0.308556" fill="white" fill-opacity="0.75"/>
<ellipse cx="618.514" cy="194.317" rx="0.910374" ry="0.264985" fill="white"/>
<ellipse cx="643.177" cy="190.435" rx="1.08134" ry="0.314747" fill="white" fill-opacity="0.75"/>
<ellipse cx="539.914" cy="59.3628" rx="0.847243" ry="0.246609" fill="white" fill-opacity="0.85"/>
<ellipse cx="1195.21" cy="97.9586" rx="0.870953" ry="0.253511" fill="white" fill-opacity="0.8"/>
<ellipse cx="71.4147" cy="109.298" rx="0.979116" ry="0.284994" fill="white"/>
<ellipse cx="437.157" cy="102.695" rx="1.10051" ry="0.320329" fill="white" fill-opacity="0.8"/>
<ellipse cx="712.384" cy="124.065" rx="1.04792" ry="0.30502" fill="white"/>
<ellipse cx="299.548" cy="57.7254" rx="1.12999" ry="0.328908" fill="white"/>
<ellipse cx="1204.7" cy="172.491" rx="1.06859" ry="0.311037" fill="white" fill-opacity="0.75"/>
<ellipse cx="1252.75" cy="68.0062" rx="0.97423" ry="0.283571" fill="white" fill-opacity="0.8"/>
<ellipse cx="677.126" cy="31.464" rx="1.24506" ry="0.362403" fill="white" fill-opacity="0.85"/>
<ellipse cx="300.184" cy="50.292" rx="0.922542" ry="0.268527" fill="white"/>
<ellipse cx="44.2562" cy="204.382" rx="0.859682" ry="0.25023" fill="white" fill-opacity="0.75"/>
<ellipse cx="51.8771" cy="132.372" rx="0.873148" ry="0.254149" fill="white" fill-opacity="0.75"/>
<ellipse cx="1133.79" cy="50.3403" rx="1.08866" ry="0.316878" fill="white" fill-opacity="0.75"/>
<ellipse cx="669.326" cy="196.083" rx="1.05213" ry="0.306246" fill="white" fill-opacity="0.75"/>
<ellipse cx="542.602" cy="99.221" rx="0.987264" ry="0.287365" fill="white"/>
<g opacity="0.1">
<g clip-path="url(#clip1_2004_7454)">
<path d="M2.16211 -178V434.325" stroke="white" stroke-width="0.464381"/>
<path d="M31.8809 -178V434.325" stroke="white" stroke-width="0.464381"/>
<path d="M61.6016 -178V434.325" stroke="white" stroke-width="0.464381"/>
<path d="M91.3223 -178V434.325" stroke="white" stroke-width="0.464381"/>
<path d="M121.043 -178V434.325" stroke="white" stroke-width="0.464381"/>
<path d="M150.764 -178V434.325" stroke="white" stroke-width="0.464381"/>
<path d="M180.484 -178V434.325" stroke="white" stroke-width="0.464381"/>
<path d="M210.203 -178V434.325" stroke="white" stroke-width="0.464381"/>
<path d="M239.924 -178V434.325" stroke="white" stroke-width="0.464381"/>
<path d="M269.645 -178V434.325" stroke="white" stroke-width="0.464381"/>
<path d="M299.365 -178V434.325" stroke="white" stroke-width="0.464381"/>
<path d="M329.086 -178V434.325" stroke="white" stroke-width="0.464381"/>
<path d="M358.807 -178V434.325" stroke="white" stroke-width="0.464381"/>
<path d="M388.525 -178V434.325" stroke="white" stroke-width="0.464381"/>
<path d="M418.246 -178V434.325" stroke="white" stroke-width="0.464381"/>
<path d="M447.967 -178V434.325" stroke="white" stroke-width="0.464381"/>
<path d="M477.688 -178V434.325" stroke="white" stroke-width="0.464381"/>
<path d="M507.408 -178V434.325" stroke="white" stroke-width="0.464381"/>
<path d="M537.129 -178V434.325" stroke="white" stroke-width="0.464381"/>
<path d="M566.848 -178V434.325" stroke="white" stroke-width="0.464381"/>
<path d="M596.568 -178V434.325" stroke="white" stroke-width="0.464381"/>
<path d="M626.289 -178V434.325" stroke="white" stroke-width="0.464381"/>
<path d="M656.01 -178V434.325" stroke="white" stroke-width="0.464381"/>
<path d="M685.73 -178V434.325" stroke="white" stroke-width="0.464381"/>
<path d="M715.451 -178V434.325" stroke="white" stroke-width="0.464381"/>
<path d="M745.172 -178V434.325" stroke="white" stroke-width="0.464381"/>
<path d="M774.891 -178V434.325" stroke="white" stroke-width="0.464381"/>
<path d="M804.611 -178V434.325" stroke="white" stroke-width="0.464381"/>
<path d="M834.332 -178V434.325" stroke="white" stroke-width="0.464381"/>
<path d="M864.053 -178V434.325" stroke="white" stroke-width="0.464381"/>
<path d="M893.773 -178V434.325" stroke="white" stroke-width="0.464381"/>
<path d="M923.494 -178V434.325" stroke="white" stroke-width="0.464381"/>
<path d="M953.215 -178V434.325" stroke="white" stroke-width="0.464381"/>
<path d="M982.934 -178V434.325" stroke="white" stroke-width="0.464381"/>
<path d="M1012.65 -178V434.325" stroke="white" stroke-width="0.464381"/>
<path d="M1042.38 -178V434.325" stroke="white" stroke-width="0.464381"/>
<path d="M1072.1 -178V434.325" stroke="white" stroke-width="0.464381"/>
<path d="M1101.82 -178V434.325" stroke="white" stroke-width="0.464381"/>
<path d="M1131.54 -178V434.325" stroke="white" stroke-width="0.464381"/>
<path d="M1161.26 -178V434.325" stroke="white" stroke-width="0.464381"/>
<path d="M1190.98 -178V434.325" stroke="white" stroke-width="0.464381"/>
<path d="M1220.7 -178V434.325" stroke="white" stroke-width="0.464381"/>
<path d="M1250.42 -178V434.325" stroke="white" stroke-width="0.464381"/>
<path d="M1280.14 -178V434.325" stroke="white" stroke-width="0.464381"/>
<path d="M1309.86 -178V434.325" stroke="white" stroke-width="0.464381"/>
</g>
<g clip-path="url(#clip2_2004_7454)">
<path d="M-86.7227 0.00195312L1693.74 0.00195313" stroke="white" stroke-width="0.464381"/>
<path d="M-86.7227 29.7227L1693.74 29.7227" stroke="white" stroke-width="0.464381"/>
<path d="M-86.7227 59.4424L1693.74 59.4424" stroke="white" stroke-width="0.464381"/>
<path d="M-86.7227 89.1631L1693.74 89.1631" stroke="white" stroke-width="0.464381"/>
<path d="M-86.7227 118.884L1693.74 118.884" stroke="white" stroke-width="0.464381"/>
<path d="M-86.7227 148.604L1693.74 148.604" stroke="white" stroke-width="0.464381"/>
<path d="M-86.7227 178.324L1693.74 178.324" stroke="white" stroke-width="0.464381"/>
<path d="M-86.7227 208.045L1693.74 208.045" stroke="white" stroke-width="0.464381"/>
<path d="M-86.7227 237.766L1693.74 237.766" stroke="white" stroke-width="0.464381"/>
<path d="M-86.7227 267.485L1693.74 267.485" stroke="white" stroke-width="0.464381"/>
<path d="M-86.7227 297.206L1693.74 297.206" stroke="white" stroke-width="0.464381"/>
<path d="M-86.7227 326.927L1693.74 326.927" stroke="white" stroke-width="0.464381"/>
<path d="M-86.7227 356.646L1693.74 356.646" stroke="white" stroke-width="0.464381"/>
<path d="M-86.7227 386.367L1693.74 386.367" stroke="white" stroke-width="0.464381"/>
<path d="M-86.7227 416.088L1693.74 416.088" stroke="white" stroke-width="0.464381"/>
<path d="M-86.7227 445.808L1693.74 445.808" stroke="white" stroke-width="0.464381"/>
<path d="M-86.7227 475.528L1693.74 475.528" stroke="white" stroke-width="0.464381"/>
<path d="M-86.7227 505.249L1693.74 505.249" stroke="white" stroke-width="0.464381"/>
<path d="M-86.7227 534.969L1693.74 534.969" stroke="white" stroke-width="0.464381"/>
<path d="M-86.7227 564.689L1693.74 564.689" stroke="white" stroke-width="0.464381"/>
<path d="M-86.7227 594.41L1693.74 594.41" stroke="white" stroke-width="0.464381"/>
<path d="M-86.7227 624.13L1693.74 624.13" stroke="white" stroke-width="0.464381"/>
<path d="M-86.7227 653.851L1693.74 653.851" stroke="white" stroke-width="0.464381"/>
<path d="M-86.7227 683.571L1693.74 683.571" stroke="white" stroke-width="0.464381"/>
<path d="M-86.7227 713.291L1693.74 713.291" stroke="white" stroke-width="0.464381"/>
<path d="M-86.7227 743.012L1693.74 743.012" stroke="white" stroke-width="0.464381"/>
<path d="M-86.7227 772.732L1693.74 772.732" stroke="white" stroke-width="0.464381"/>
<path d="M-86.7227 802.453L1693.74 802.453" stroke="white" stroke-width="0.464381"/>
<path d="M-86.7227 832.173L1693.74 832.173" stroke="white" stroke-width="0.464381"/>
<g clip-path="url(#clip3_2004_7454)">
<path d="M891.568 942.223C892.104 942.223 892.539 942.097 892.539 941.941C892.539 941.785 892.104 941.658 891.568 941.658C891.032 941.658 890.598 941.785 890.598 941.941C890.598 942.097 891.032 942.223 891.568 942.223Z" fill="white"/>
<path d="M1056.15 919.56C1056.63 919.56 1057.03 919.445 1057.03 919.302C1057.03 919.16 1056.63 919.045 1056.15 919.045C1055.66 919.045 1055.26 919.16 1055.26 919.302C1055.26 919.445 1055.66 919.56 1056.15 919.56Z" fill="white" fill-opacity="0.75"/>
<path d="M1051.93 935.278C1052.4 935.278 1052.79 935.165 1052.79 935.027C1052.79 934.888 1052.4 934.775 1051.93 934.775C1051.45 934.775 1051.06 934.888 1051.06 935.027C1051.06 935.165 1051.45 935.278 1051.93 935.278Z" fill="white"/>
<path d="M845.395 893.461C846.075 893.461 846.627 893.3 846.627 893.102C846.627 892.904 846.075 892.743 845.395 892.743C844.714 892.743 844.162 892.904 844.162 893.102C844.162 893.3 844.714 893.461 845.395 893.461Z" fill="white" fill-opacity="0.75"/>
<path d="M296.165 916.101C296.638 916.101 297.021 915.989 297.021 915.852C297.021 915.714 296.638 915.603 296.165 915.603C295.692 915.603 295.309 915.714 295.309 915.852C295.309 915.989 295.692 916.101 296.165 916.101Z" fill="white"/>
<path d="M466.014 960.908C466.558 960.908 466.999 960.78 466.999 960.622C466.999 960.463 466.558 960.335 466.014 960.335C465.47 960.335 465.029 960.463 465.029 960.622C465.029 960.78 465.47 960.908 466.014 960.908Z" fill="white" fill-opacity="0.85"/>
<path d="M293.847 940.323C294.447 940.323 294.934 940.182 294.934 940.007C294.934 939.832 294.447 939.69 293.847 939.69C293.246 939.69 292.76 939.832 292.76 940.007C292.76 940.182 293.246 940.323 293.847 940.323Z" fill="white"/>
<path d="M374.803 937.317C375.352 937.317 375.797 937.187 375.797 937.028C375.797 936.868 375.352 936.738 374.803 936.738C374.254 936.738 373.809 936.868 373.809 937.028C373.809 937.187 374.254 937.317 374.803 937.317Z" fill="white"/>
<path d="M992.068 953.278C992.603 953.278 993.036 953.151 993.036 952.996C993.036 952.84 992.603 952.714 992.068 952.714C991.533 952.714 991.1 952.84 991.1 952.996C991.1 953.151 991.533 953.278 992.068 953.278Z" fill="white" fill-opacity="0.75"/>
<path d="M1090.23 937.671C1090.88 937.671 1091.41 937.518 1091.41 937.328C1091.41 937.139 1090.88 936.985 1090.23 936.985C1089.58 936.985 1089.05 937.139 1089.05 937.328C1089.05 937.518 1089.58 937.671 1090.23 937.671Z" fill="white" fill-opacity="0.85"/>
<path d="M1031.15 928.607C1031.82 928.607 1032.37 928.447 1032.37 928.25C1032.37 928.052 1031.82 927.893 1031.15 927.893C1030.47 927.893 1029.92 928.052 1029.92 928.25C1029.92 928.447 1030.47 928.607 1031.15 928.607Z" fill="white" fill-opacity="0.75"/>
<path d="M650.12 961.668C650.681 961.668 651.135 961.536 651.135 961.373C651.135 961.209 650.681 961.077 650.12 961.077C649.56 961.077 649.105 961.209 649.105 961.373C649.105 961.536 649.56 961.668 650.12 961.668Z" fill="white" fill-opacity="0.85"/>
<path d="M695.615 905.31C696.112 905.31 696.515 905.193 696.515 905.048C696.515 904.903 696.112 904.786 695.615 904.786C695.118 904.786 694.715 904.903 694.715 905.048C694.715 905.193 695.118 905.31 695.615 905.31Z" fill="white"/>
<path d="M203.475 964.403C204.069 964.403 204.55 964.263 204.55 964.09C204.55 963.917 204.069 963.777 203.475 963.777C202.882 963.777 202.4 963.917 202.4 964.09C202.4 964.263 202.882 964.403 203.475 964.403Z" fill="white" fill-opacity="0.85"/>
<path d="M1119.74 964.933C1120.37 964.933 1120.88 964.784 1120.88 964.601C1120.88 964.417 1120.37 964.269 1119.74 964.269C1119.11 964.269 1118.6 964.417 1118.6 964.601C1118.6 964.784 1119.11 964.933 1119.74 964.933Z" fill="white" fill-opacity="0.75"/>
<path d="M102.049 929.194C102.586 929.194 103.021 929.068 103.021 928.912C103.021 928.755 102.586 928.629 102.049 928.629C101.513 928.629 101.078 928.755 101.078 928.912C101.078 929.068 101.513 929.194 102.049 929.194Z" fill="white" fill-opacity="0.75"/>
<path d="M450.804 967.054C451.351 967.054 451.794 966.925 451.794 966.766C451.794 966.607 451.351 966.478 450.804 966.478C450.258 966.478 449.814 966.607 449.814 966.766C449.814 966.925 450.258 967.054 450.804 967.054Z" fill="white" fill-opacity="0.8"/>
<path d="M807.96 945.652C808.489 945.652 808.918 945.528 808.918 945.374C808.918 945.22 808.489 945.095 807.96 945.095C807.431 945.095 807.002 945.22 807.002 945.374C807.002 945.528 807.431 945.652 807.96 945.652Z" fill="white"/>
<path d="M32.1143 966.89C32.734 966.89 33.2364 966.743 33.2364 966.563C33.2364 966.383 32.734 966.236 32.1143 966.236C31.4946 966.236 30.9922 966.383 30.9922 966.563C30.9922 966.743 31.4946 966.89 32.1143 966.89Z" fill="white" fill-opacity="0.75"/>
<path d="M277.759 931.202C278.333 931.202 278.799 931.067 278.799 930.899C278.799 930.732 278.333 930.597 277.759 930.597C277.184 930.597 276.719 930.732 276.719 930.899C276.719 931.067 277.184 931.202 277.759 931.202Z" fill="white" fill-opacity="0.75"/>
<path d="M601.105 959.191C601.649 959.191 602.089 959.063 602.089 958.905C602.089 958.746 601.649 958.618 601.105 958.618C600.562 958.618 600.121 958.746 600.121 958.905C600.121 959.063 600.562 959.191 601.105 959.191Z" fill="white"/>
<path d="M1148.23 899.415C1148.73 899.415 1149.13 899.297 1149.13 899.153C1149.13 899.008 1148.73 898.891 1148.23 898.891C1147.73 898.891 1147.33 899.008 1147.33 899.153C1147.33 899.297 1147.73 899.415 1148.23 899.415Z" fill="white"/>
<path d="M145.973 897.989C146.519 897.989 146.962 897.86 146.962 897.701C146.962 897.542 146.519 897.413 145.973 897.413C145.427 897.413 144.984 897.542 144.984 897.701C144.984 897.86 145.427 897.989 145.973 897.989Z" fill="white" fill-opacity="0.8"/>
<path d="M569.907 951.841C570.473 951.841 570.932 951.707 570.932 951.542C570.932 951.378 570.473 951.244 569.907 951.244C569.341 951.244 568.883 951.378 568.883 951.542C568.883 951.707 569.341 951.841 569.907 951.841Z" fill="white" fill-opacity="0.85"/>
<path d="M1130.47 888.347C1130.96 888.347 1131.36 888.231 1131.36 888.088C1131.36 887.945 1130.96 887.829 1130.47 887.829C1129.98 887.829 1129.58 887.945 1129.58 888.088C1129.58 888.231 1129.98 888.347 1130.47 888.347Z" fill="white" fill-opacity="0.75"/>
<path d="M1138.23 900.001C1138.81 900.001 1139.29 899.862 1139.29 899.692C1139.29 899.521 1138.81 899.383 1138.23 899.383C1137.64 899.383 1137.17 899.521 1137.17 899.692C1137.17 899.862 1137.64 900.001 1138.23 900.001Z" fill="white"/>
<path d="M81.1851 937.944C81.8622 937.944 82.4112 937.784 82.4112 937.587C82.4112 937.39 81.8622 937.23 81.1851 937.23C80.5079 937.23 79.959 937.39 79.959 937.587C79.959 937.784 80.5079 937.944 81.1851 937.944Z" fill="white" fill-opacity="0.75"/>
<path d="M106.415 912.078C107.033 912.078 107.534 911.932 107.534 911.752C107.534 911.572 107.033 911.426 106.415 911.426C105.796 911.426 105.295 911.572 105.295 911.752C105.295 911.932 105.796 912.078 106.415 912.078Z" fill="white"/>
<path d="M679.784 895.612C680.406 895.612 680.91 895.466 680.91 895.285C680.91 895.104 680.406 894.957 679.784 894.957C679.162 894.957 678.658 895.104 678.658 895.285C678.658 895.466 679.162 895.612 679.784 895.612Z" fill="white" fill-opacity="0.85"/>
<path d="M15.8516 966.025C16.3489 966.025 16.7521 965.908 16.7521 965.763C16.7521 965.618 16.3489 965.501 15.8516 965.501C15.3543 965.501 14.9512 965.618 14.9512 965.763C14.9512 965.908 15.3543 966.025 15.8516 966.025Z" fill="white"/>
<path d="M206.759 942.222C207.293 942.222 207.726 942.095 207.726 941.94C207.726 941.784 207.293 941.658 206.759 941.658C206.224 941.658 205.791 941.784 205.791 941.94C205.791 942.095 206.224 942.222 206.759 942.222Z" fill="white" fill-opacity="0.8"/>
<path d="M63.4689 944.344C64.1529 944.344 64.7074 944.183 64.7074 943.984C64.7074 943.784 64.1529 943.623 63.4689 943.623C62.7849 943.623 62.2305 943.784 62.2305 943.984C62.2305 944.183 62.7849 944.344 63.4689 944.344Z" fill="white"/>
<path d="M976.947 891.648C977.539 891.648 978.018 891.508 978.018 891.336C978.018 891.164 977.539 891.024 976.947 891.024C976.356 891.024 975.877 891.164 975.877 891.336C975.877 891.508 976.356 891.648 976.947 891.648Z" fill="white"/>
<path d="M781.167 967.91C781.822 967.91 782.353 967.756 782.353 967.565C782.353 967.374 781.822 967.22 781.167 967.22C780.512 967.22 779.98 967.374 779.98 967.565C779.98 967.756 780.512 967.91 781.167 967.91Z" fill="white" fill-opacity="0.75"/>
<path d="M1006.34 934.79C1006.82 934.79 1007.21 934.677 1007.21 934.538C1007.21 934.398 1006.82 934.285 1006.34 934.285C1005.86 934.285 1005.47 934.398 1005.47 934.538C1005.47 934.677 1005.86 934.79 1006.34 934.79Z" fill="white" fill-opacity="0.8"/>
<path d="M121.473 940.752C122.015 940.752 122.454 940.624 122.454 940.466C122.454 940.309 122.015 940.181 121.473 940.181C120.931 940.181 120.492 940.309 120.492 940.466C120.492 940.624 120.931 940.752 121.473 940.752Z" fill="white" fill-opacity="0.75"/>
<path d="M38.8796 965.919C39.5089 965.919 40.019 965.771 40.019 965.588C40.019 965.404 39.5089 965.256 38.8796 965.256C38.2504 965.256 37.7402 965.404 37.7402 965.588C37.7402 965.771 38.2504 965.919 38.8796 965.919Z" fill="white"/>
<path d="M326.735 922.851C327.315 922.851 327.785 922.715 327.785 922.546C327.785 922.377 327.315 922.24 326.735 922.24C326.156 922.24 325.686 922.377 325.686 922.546C325.686 922.715 326.156 922.851 326.735 922.851Z" fill="white" fill-opacity="0.75"/>
<path d="M907.638 901.931C908.19 901.931 908.637 901.801 908.637 901.64C908.637 901.48 908.19 901.35 907.638 901.35C907.086 901.35 906.639 901.48 906.639 901.64C906.639 901.801 907.086 901.931 907.638 901.931Z" fill="white" fill-opacity="0.75"/>
<path d="M386.798 955.843C387.432 955.843 387.945 955.693 387.945 955.509C387.945 955.324 387.432 955.175 386.798 955.175C386.164 955.175 385.65 955.324 385.65 955.509C385.65 955.693 386.164 955.843 386.798 955.843Z" fill="white" fill-opacity="0.75"/>
<path d="M44.5867 940.485C45.1082 940.485 45.5309 940.362 45.5309 940.21C45.5309 940.059 45.1082 939.936 44.5867 939.936C44.0653 939.936 43.6426 940.059 43.6426 940.21C43.6426 940.362 44.0653 940.485 44.5867 940.485Z" fill="white" fill-opacity="0.75"/>
<path d="M780.095 930.415C780.624 930.415 781.052 930.29 781.052 930.136C781.052 929.982 780.624 929.857 780.095 929.857C779.566 929.857 779.137 929.982 779.137 930.136C779.137 930.29 779.566 930.415 780.095 930.415Z" fill="white" fill-opacity="0.85"/>
<path d="M299.065 935.983C299.742 935.983 300.291 935.823 300.291 935.626C300.291 935.428 299.742 935.269 299.065 935.269C298.387 935.269 297.838 935.428 297.838 935.626C297.838 935.823 298.387 935.983 299.065 935.983Z" fill="white" fill-opacity="0.85"/>
<path d="M828.996 922.009C829.478 922.009 829.87 921.895 829.87 921.755C829.87 921.614 829.478 921.5 828.996 921.5C828.513 921.5 828.121 921.614 828.121 921.755C828.121 921.895 828.513 922.009 828.996 922.009Z" fill="white" fill-opacity="0.75"/>
<path d="M881.571 907.146C882.175 907.146 882.664 907.004 882.664 906.828C882.664 906.652 882.175 906.51 881.571 906.51C880.968 906.51 880.479 906.652 880.479 906.828C880.479 907.004 880.968 907.146 881.571 907.146Z" fill="white" fill-opacity="0.75"/>
<path d="M622.437 943.349C623.108 943.349 623.651 943.19 623.651 942.995C623.651 942.8 623.108 942.642 622.437 942.642C621.766 942.642 621.223 942.8 621.223 942.995C621.223 943.19 621.766 943.349 622.437 943.349Z" fill="white" fill-opacity="0.85"/>
<path d="M692.568 898.879C693.255 898.879 693.812 898.716 693.812 898.516C693.812 898.316 693.255 898.154 692.568 898.154C691.881 898.154 691.324 898.316 691.324 898.516C691.324 898.716 691.881 898.879 692.568 898.879Z" fill="white" fill-opacity="0.85"/>
<path d="M1011.44 950.311C1011.95 950.311 1012.36 950.19 1012.36 950.041C1012.36 949.891 1011.95 949.771 1011.44 949.771C1010.93 949.771 1010.51 949.891 1010.51 950.041C1010.51 950.19 1010.93 950.311 1011.44 950.311Z" fill="white"/>
<path d="M967.488 908.253C967.976 908.253 968.372 908.138 968.372 907.996C968.372 907.854 967.976 907.738 967.488 907.738C966.999 907.738 966.604 907.854 966.604 907.996C966.604 908.138 966.999 908.253 967.488 908.253Z" fill="white"/>
<path d="M606.367 893.665C607.003 893.665 607.518 893.515 607.518 893.33C607.518 893.145 607.003 892.995 606.367 892.995C605.732 892.995 605.217 893.145 605.217 893.33C605.217 893.515 605.732 893.665 606.367 893.665Z" fill="white" fill-opacity="0.85"/>
<path d="M125.806 967.611C126.412 967.611 126.903 967.468 126.903 967.292C126.903 967.116 126.412 966.973 125.806 966.973C125.2 966.973 124.709 967.116 124.709 967.292C124.709 967.468 125.2 967.611 125.806 967.611Z" fill="white" fill-opacity="0.75"/>
<path d="M921.968 910.506C922.497 910.506 922.926 910.381 922.926 910.227C922.926 910.073 922.497 909.948 921.968 909.948C921.439 909.948 921.01 910.073 921.01 910.227C921.01 910.381 921.439 910.506 921.968 910.506Z" fill="white"/>
<path d="M772.666 935.178C773.284 935.178 773.785 935.032 773.785 934.852C773.785 934.672 773.284 934.526 772.666 934.526C772.048 934.526 771.547 934.672 771.547 934.852C771.547 935.032 772.048 935.178 772.666 935.178Z" fill="white" fill-opacity="0.8"/>
<path d="M682.999 950.579C683.533 950.579 683.967 950.453 683.967 950.297C683.967 950.142 683.533 950.016 682.999 950.016C682.464 950.016 682.031 950.142 682.031 950.297C682.031 950.453 682.464 950.579 682.999 950.579Z" fill="white" fill-opacity="0.75"/>
<path d="M624.752 954.504C625.285 954.504 625.717 954.378 625.717 954.223C625.717 954.068 625.285 953.942 624.752 953.942C624.219 953.942 623.787 954.068 623.787 954.223C623.787 954.378 624.219 954.504 624.752 954.504Z" fill="white" fill-opacity="0.85"/>
<path d="M504.784 925.978C505.295 925.978 505.709 925.857 505.709 925.709C505.709 925.56 505.295 925.439 504.784 925.439C504.274 925.439 503.859 925.56 503.859 925.709C503.859 925.857 504.274 925.978 504.784 925.978Z" fill="white" fill-opacity="0.75"/>
<path d="M980.168 896.706C980.664 896.706 981.066 896.589 981.066 896.445C981.066 896.301 980.664 896.184 980.168 896.184C979.672 896.184 979.27 896.301 979.27 896.445C979.27 896.589 979.672 896.706 980.168 896.706Z" fill="white"/>
<path d="M775.313 899.855C775.996 899.855 776.549 899.694 776.549 899.495C776.549 899.297 775.996 899.136 775.313 899.136C774.631 899.136 774.078 899.297 774.078 899.495C774.078 899.694 774.631 899.855 775.313 899.855Z" fill="white" fill-opacity="0.75"/>
<path d="M650.22 914.773C650.836 914.773 651.334 914.628 651.334 914.448C651.334 914.269 650.836 914.124 650.22 914.124C649.604 914.124 649.105 914.269 649.105 914.448C649.105 914.628 649.604 914.773 650.22 914.773Z" fill="white"/>
<path d="M155.51 889.773C156.19 889.773 156.742 889.612 156.742 889.414C156.742 889.216 156.19 889.056 155.51 889.056C154.829 889.056 154.277 889.216 154.277 889.414C154.277 889.612 154.829 889.773 155.51 889.773Z" fill="white"/>
<path d="M218.523 950.057C219.035 950.057 219.449 949.937 219.449 949.788C219.449 949.639 219.035 949.519 218.523 949.519C218.012 949.519 217.598 949.639 217.598 949.788C217.598 949.937 218.012 950.057 218.523 950.057Z" fill="white" fill-opacity="0.85"/>
<path d="M871.338 903.415C871.898 903.415 872.352 903.282 872.352 903.119C872.352 902.956 871.898 902.824 871.338 902.824C870.778 902.824 870.324 902.956 870.324 903.119C870.324 903.282 870.778 903.415 871.338 903.415Z" fill="white" fill-opacity="0.75"/>
<path d="M835.15 963.195C835.763 963.195 836.26 963.05 836.26 962.872C836.26 962.693 835.763 962.549 835.15 962.549C834.538 962.549 834.041 962.693 834.041 962.872C834.041 963.05 834.538 963.195 835.15 963.195Z" fill="white" fill-opacity="0.75"/>
<path d="M1122.32 948.484C1122.96 948.484 1123.49 948.332 1123.49 948.143C1123.49 947.955 1122.96 947.802 1122.32 947.802C1121.67 947.802 1121.14 947.955 1121.14 948.143C1121.14 948.332 1121.67 948.484 1122.32 948.484Z" fill="white" fill-opacity="0.8"/>
<path d="M46.367 891.123C46.9299 891.123 47.3863 890.99 47.3863 890.826C47.3863 890.662 46.9299 890.529 46.367 890.529C45.804 890.529 45.3477 890.662 45.3477 890.826C45.3477 890.99 45.804 891.123 46.367 891.123Z" fill="white"/>
<path d="M740.613 945.518C741.247 945.518 741.761 945.368 741.761 945.184C741.761 944.999 741.247 944.85 740.613 944.85C739.979 944.85 739.465 944.999 739.465 945.184C739.465 945.368 739.979 945.518 740.613 945.518Z" fill="white"/>
<path d="M357.167 903.206C357.765 903.206 358.251 903.064 358.251 902.89C358.251 902.716 357.765 902.574 357.167 902.574C356.568 902.574 356.082 902.716 356.082 902.89C356.082 903.064 356.568 903.206 357.167 903.206Z" fill="white" fill-opacity="0.85"/>
<path d="M-0.209755 953.975C0.286012 953.975 0.687912 953.858 0.687912 953.713C0.687912 953.569 0.286012 953.452 -0.209755 953.452C-0.705522 953.452 -1.10742 953.569 -1.10742 953.713C-1.10742 953.858 -0.705522 953.975 -0.209755 953.975Z" fill="white" fill-opacity="0.8"/>
<path d="M446.761 970.837C447.394 970.837 447.907 970.688 447.907 970.503C447.907 970.319 447.394 970.17 446.761 970.17C446.128 970.17 445.615 970.319 445.615 970.503C445.615 970.688 446.128 970.837 446.761 970.837Z" fill="white"/>
<path d="M13.5846 915.304C14.2364 915.304 14.7649 915.15 14.7649 914.961C14.7649 914.771 14.2364 914.617 13.5846 914.617C12.9327 914.617 12.4043 914.771 12.4043 914.961C12.4043 915.15 12.9327 915.304 13.5846 915.304Z" fill="white"/>
<path d="M498.353 943.124C499.049 943.124 499.613 942.96 499.613 942.757C499.613 942.555 499.049 942.391 498.353 942.391C497.658 942.391 497.094 942.555 497.094 942.757C497.094 942.96 497.658 943.124 498.353 943.124Z" fill="white"/>
<path d="M520.953 960.939C521.526 960.939 521.99 960.804 521.99 960.637C521.99 960.47 521.526 960.335 520.953 960.335C520.38 960.335 519.916 960.47 519.916 960.637C519.916 960.804 520.38 960.939 520.953 960.939Z" fill="white" fill-opacity="0.85"/>
<path d="M423.044 943.017C423.638 943.017 424.12 942.877 424.12 942.704C424.12 942.531 423.638 942.391 423.044 942.391C422.449 942.391 421.967 942.531 421.967 942.704C421.967 942.877 422.449 943.017 423.044 943.017Z" fill="white"/>
<path d="M558.046 906.105C558.592 906.105 559.034 905.977 559.034 905.818C559.034 905.659 558.592 905.53 558.046 905.53C557.501 905.53 557.059 905.659 557.059 905.818C557.059 905.977 557.501 906.105 558.046 906.105Z" fill="white"/>
<path d="M866.126 947.813C866.602 947.813 866.988 947.7 866.988 947.562C866.988 947.423 866.602 947.311 866.126 947.311C865.65 947.311 865.264 947.423 865.264 947.562C865.264 947.7 865.65 947.813 866.126 947.813Z" fill="white" fill-opacity="0.8"/>
<path d="M374.92 892.9C375.534 892.9 376.032 892.755 376.032 892.576C376.032 892.398 375.534 892.253 374.92 892.253C374.306 892.253 373.809 892.398 373.809 892.576C373.809 892.755 374.306 892.9 374.92 892.9Z" fill="white"/>
<path d="M320.839 900.977C321.422 900.977 321.895 900.839 321.895 900.67C321.895 900.5 321.422 900.362 320.839 900.362C320.256 900.362 319.783 900.5 319.783 900.67C319.783 900.839 320.256 900.977 320.839 900.977Z" fill="white" fill-opacity="0.75"/>
<path d="M152.79 920.888C153.375 920.888 153.849 920.75 153.849 920.58C153.849 920.41 153.375 920.271 152.79 920.271C152.205 920.271 151.73 920.41 151.73 920.58C151.73 920.75 152.205 920.888 152.79 920.888Z" fill="white"/>
<path d="M190.69 905.585C191.209 905.585 191.63 905.463 191.63 905.312C191.63 905.161 191.209 905.038 190.69 905.038C190.171 905.038 189.75 905.161 189.75 905.312C189.75 905.463 190.171 905.585 190.69 905.585Z" fill="white" fill-opacity="0.75"/>
<path d="M949.117 916.486C949.723 916.486 950.214 916.343 950.214 916.167C950.214 915.991 949.723 915.848 949.117 915.848C948.511 915.848 948.02 915.991 948.02 916.167C948.02 916.343 948.511 916.486 949.117 916.486Z" fill="white"/>
<path d="M13.3659 909.28C13.897 909.28 14.3276 909.154 14.3276 909C14.3276 908.845 13.897 908.72 13.3659 908.72C12.8348 908.72 12.4043 908.845 12.4043 909C12.4043 909.154 12.8348 909.28 13.3659 909.28Z" fill="white"/>
<path d="M35.5657 954.409C36.2373 954.409 36.7818 954.251 36.7818 954.055C36.7818 953.86 36.2373 953.701 35.5657 953.701C34.8941 953.701 34.3496 953.86 34.3496 954.055C34.3496 954.251 34.8941 954.409 35.5657 954.409Z" fill="white" fill-opacity="0.75"/>
<path d="M313.911 961.337C314.395 961.337 314.787 961.223 314.787 961.082C314.787 960.941 314.395 960.827 313.911 960.827C313.427 960.827 313.035 960.941 313.035 961.082C313.035 961.223 313.427 961.337 313.911 961.337Z" fill="white" fill-opacity="0.75"/>
<path d="M581.636 890.339C582.149 890.339 582.565 890.218 582.565 890.068C582.565 889.919 582.149 889.798 581.636 889.798C581.123 889.798 580.707 889.919 580.707 890.068C580.707 890.218 581.123 890.339 581.636 890.339Z" fill="white" fill-opacity="0.85"/>
<path d="M734.663 911.339C735.281 911.339 735.781 911.194 735.781 911.014C735.781 910.834 735.281 910.688 734.663 910.688C734.046 910.688 733.545 910.834 733.545 911.014C733.545 911.194 734.046 911.339 734.663 911.339Z" fill="white" fill-opacity="0.75"/>
<path d="M727.909 918.464C728.524 918.464 729.022 918.319 729.022 918.14C729.022 917.961 728.524 917.816 727.909 917.816C727.295 917.816 726.797 917.961 726.797 918.14C726.797 918.319 727.295 918.464 727.909 918.464Z" fill="white" fill-opacity="0.75"/>
<path d="M911.898 924.556C912.465 924.556 912.924 924.422 912.924 924.257C912.924 924.093 912.465 923.959 911.898 923.959C911.332 923.959 910.873 924.093 910.873 924.257C910.873 924.422 911.332 924.556 911.898 924.556Z" fill="white" fill-opacity="0.85"/>
<path d="M533.705 932.243C534.333 932.243 534.843 932.094 534.843 931.911C534.843 931.728 534.333 931.58 533.705 931.58C533.076 931.58 532.566 931.728 532.566 931.911C532.566 932.094 533.076 932.243 533.705 932.243Z" fill="white" fill-opacity="0.85"/>
<path d="M899.333 932.227C899.946 932.227 900.444 932.082 900.444 931.903C900.444 931.725 899.946 931.58 899.333 931.58C898.72 931.58 898.223 931.725 898.223 931.903C898.223 932.082 898.72 932.227 899.333 932.227Z" fill="white"/>
<path d="M331.77 919.631C332.326 919.631 332.777 919.5 332.777 919.338C332.777 919.176 332.326 919.045 331.77 919.045C331.214 919.045 330.764 919.176 330.764 919.338C330.764 919.5 331.214 919.631 331.77 919.631Z" fill="white" fill-opacity="0.8"/>
<path d="M413.882 944.082C414.55 944.082 415.092 943.925 415.092 943.73C415.092 943.536 414.55 943.378 413.882 943.378C413.214 943.378 412.672 943.536 412.672 943.73C412.672 943.925 413.214 944.082 413.882 944.082Z" fill="white"/>
<path d="M181.463 919.631C182.019 919.631 182.469 919.499 182.469 919.338C182.469 919.176 182.019 919.045 181.463 919.045C180.907 919.045 180.457 919.176 180.457 919.338C180.457 919.499 180.907 919.631 181.463 919.631Z" fill="white" fill-opacity="0.75"/>
<path d="M936.377 921.106C936.935 921.106 937.387 920.975 937.387 920.812C937.387 920.65 936.935 920.519 936.377 920.519C935.819 920.519 935.367 920.65 935.367 920.812C935.367 920.975 935.819 921.106 936.377 921.106Z" fill="white"/>
<path d="M57.3326 928.232C57.8874 928.232 58.3371 928.101 58.3371 927.94C58.3371 927.778 57.8874 927.647 57.3326 927.647C56.7778 927.647 56.3281 927.778 56.3281 927.94C56.3281 928.101 56.7778 928.232 57.3326 928.232Z" fill="white" fill-opacity="0.8"/>
<path d="M998.227 928.595C998.893 928.595 999.434 928.438 999.434 928.244C999.434 928.05 998.893 927.893 998.227 927.893C997.56 927.893 997.02 928.05 997.02 928.244C997.02 928.438 997.56 928.595 998.227 928.595Z" fill="white" fill-opacity="0.75"/>
<path d="M688.017 943.171C688.52 943.171 688.927 943.053 688.927 942.906C688.927 942.76 688.52 942.642 688.017 942.642C687.515 942.642 687.107 942.76 687.107 942.906C687.107 943.053 687.515 943.171 688.017 943.171Z" fill="white"/>
<path d="M531.907 946.183C532.474 946.183 532.934 946.05 532.934 945.885C532.934 945.72 532.474 945.586 531.907 945.586C531.34 945.586 530.881 945.72 530.881 945.885C530.881 946.05 531.34 946.183 531.907 946.183Z" fill="white"/>
<path d="M210.04 941.181C210.524 941.181 210.916 941.067 210.916 940.926C210.916 940.785 210.524 940.671 210.04 940.671C209.556 940.671 209.164 940.785 209.164 940.926C209.164 941.067 209.556 941.181 210.04 941.181Z" fill="white" fill-opacity="0.75"/>
<path d="M755.549 919.815C756.047 919.815 756.451 919.698 756.451 919.553C756.451 919.408 756.047 919.29 755.549 919.29C755.051 919.29 754.646 919.408 754.646 919.553C754.646 919.698 755.051 919.815 755.549 919.815Z" fill="white"/>
<path d="M776.956 898.107C777.614 898.107 778.147 897.952 778.147 897.76C778.147 897.568 777.614 897.413 776.956 897.413C776.297 897.413 775.764 897.568 775.764 897.76C775.764 897.952 776.297 898.107 776.956 898.107Z" fill="white"/>
<path d="M93.6992 891.885C94.2816 891.885 94.7538 891.748 94.7538 891.578C94.7538 891.409 94.2816 891.271 93.6992 891.271C93.1167 891.271 92.6445 891.409 92.6445 891.578C92.6445 891.748 93.1167 891.885 93.6992 891.885Z" fill="white" fill-opacity="0.75"/>
<path d="M358.889 950.413C359.499 950.413 359.993 950.269 359.993 950.092C359.993 949.914 359.499 949.771 358.889 949.771C358.279 949.771 357.785 949.914 357.785 950.092C357.785 950.269 358.279 950.413 358.889 950.413Z" fill="white" fill-opacity="0.8"/>
<path d="M1154.12 933.088C1154.62 933.088 1155.02 932.971 1155.02 932.825C1155.02 932.679 1154.62 932.562 1154.12 932.562C1153.62 932.562 1153.21 932.679 1153.21 932.825C1153.21 932.971 1153.62 933.088 1154.12 933.088Z" fill="white" fill-opacity="0.75"/>
<path d="M386.527 922.998C387.012 922.998 387.404 922.883 387.404 922.743C387.404 922.602 387.012 922.487 386.527 922.487C386.043 922.487 385.65 922.602 385.65 922.743C385.65 922.883 386.043 922.998 386.527 922.998Z" fill="white" fill-opacity="0.8"/>
<path d="M447.612 950.942C448.258 950.942 448.782 950.79 448.782 950.601C448.782 950.413 448.258 950.261 447.612 950.261C446.965 950.261 446.441 950.413 446.441 950.601C446.441 950.79 446.965 950.942 447.612 950.942Z" fill="white"/>
<path d="M1054.63 940.061C1055.21 940.061 1055.69 939.923 1055.69 939.753C1055.69 939.582 1055.21 939.444 1054.63 939.444C1054.04 939.444 1053.57 939.582 1053.57 939.753C1053.57 939.923 1054.04 940.061 1054.63 940.061Z" fill="white" fill-opacity="0.75"/>
<path d="M453.191 921.503C453.659 921.503 454.038 921.393 454.038 921.256C454.038 921.12 453.659 921.01 453.191 921.01C452.723 921.01 452.344 921.12 452.344 921.256C452.344 921.393 452.723 921.503 453.191 921.503Z" fill="white" fill-opacity="0.85"/>
<path d="M1108.49 960.106C1108.97 960.106 1109.36 959.992 1109.36 959.852C1109.36 959.712 1108.97 959.599 1108.49 959.599C1108.01 959.599 1107.62 959.712 1107.62 959.852C1107.62 959.992 1108.01 960.106 1108.49 960.106Z" fill="white" fill-opacity="0.8"/>
<path d="M350.435 964.909C351.042 964.909 351.535 964.766 351.535 964.589C351.535 964.412 351.042 964.269 350.435 964.269C349.827 964.269 349.334 964.412 349.334 964.589C349.334 964.766 349.827 964.909 350.435 964.909Z" fill="white" fill-opacity="0.8"/>
<path d="M212.825 919.948C213.449 919.948 213.955 919.801 213.955 919.619C213.955 919.437 213.449 919.29 212.825 919.29C212.201 919.29 211.695 919.437 211.695 919.619C211.695 919.801 212.201 919.948 212.825 919.948Z" fill="white"/>
<path d="M1166.03 930.183C1166.57 930.183 1167 930.056 1167 929.9C1167 929.743 1166.57 929.616 1166.03 929.616C1165.49 929.616 1165.05 929.743 1165.05 929.9C1165.05 930.056 1165.49 930.183 1166.03 930.183Z" fill="white" fill-opacity="0.8"/>
<path d="M590.403 893.72C591.091 893.72 591.648 893.558 591.648 893.358C591.648 893.157 591.091 892.995 590.403 892.995C589.716 892.995 589.158 893.157 589.158 893.358C589.158 893.558 589.716 893.72 590.403 893.72Z" fill="white" fill-opacity="0.85"/>
<path d="M213.462 912.454C213.971 912.454 214.384 912.334 214.384 912.186C214.384 912.037 213.971 911.917 213.462 911.917C212.952 911.917 212.539 912.037 212.539 912.186C212.539 912.334 212.952 912.454 213.462 912.454Z" fill="white"/>
<path d="M1047.07 912.551C1047.67 912.551 1048.16 912.409 1048.16 912.234C1048.16 912.059 1047.67 911.917 1047.07 911.917C1046.47 911.917 1045.98 912.059 1045.98 912.234C1045.98 912.409 1046.47 912.551 1047.07 912.551Z" fill="white" fill-opacity="0.75"/>
<path d="M455.88 961.402C456.425 961.402 456.867 961.273 456.867 961.115C456.867 960.956 456.425 960.827 455.88 960.827C455.335 960.827 454.893 960.956 454.893 961.115C454.893 961.273 455.335 961.402 455.88 961.402Z" fill="white"/>
<g opacity="0.1">
<mask id="mask0_2004_7454" style="mask-type:luminance" maskUnits="userSpaceOnUse" x="-174" y="683" width="1781" height="1152">
<path d="M1606.75 683.894H-173.723V1834.81H1606.75V683.894Z" fill="white"/>
</mask>
<g mask="url(#mask0_2004_7454)">
<path d="M4.59961 683.894V1296.22" stroke="white" stroke-width="0.464381"/>
<path d="M34.3203 683.894V1296.22" stroke="white" stroke-width="0.464381"/>
<path d="M64.041 683.894V1296.22" stroke="white" stroke-width="0.464381"/>
<path d="M93.7598 683.894V1296.22" stroke="white" stroke-width="0.464381"/>
<path d="M123.48 683.894V1296.22" stroke="white" stroke-width="0.464381"/>
<path d="M153.201 683.894V1296.22" stroke="white" stroke-width="0.464381"/>
<path d="M182.922 683.894V1296.22" stroke="white" stroke-width="0.464381"/>
<path d="M212.643 683.894V1296.22" stroke="white" stroke-width="0.464381"/>
<path d="M242.363 683.894V1296.22" stroke="white" stroke-width="0.464381"/>
<path d="M272.084 683.894V1296.22" stroke="white" stroke-width="0.464381"/>
<path d="M301.803 683.894V1296.22" stroke="white" stroke-width="0.464381"/>
<path d="M331.523 683.894V1296.22" stroke="white" stroke-width="0.464381"/>
<path d="M361.244 683.894V1296.22" stroke="white" stroke-width="0.464381"/>
<path d="M390.965 683.894V1296.22" stroke="white" stroke-width="0.464381"/>
<path d="M420.686 683.894V1296.22" stroke="white" stroke-width="0.464381"/>
<path d="M450.406 683.894V1296.22" stroke="white" stroke-width="0.464381"/>
<path d="M480.127 683.894V1296.22" stroke="white" stroke-width="0.464381"/>
<path d="M509.846 683.894V1296.22" stroke="white" stroke-width="0.464381"/>
<path d="M539.566 683.894V1296.22" stroke="white" stroke-width="0.464381"/>
<path d="M569.287 683.894V1296.22" stroke="white" stroke-width="0.464381"/>
<path d="M599.008 683.894V1296.22" stroke="white" stroke-width="0.464381"/>
<path d="M628.729 683.894V1296.22" stroke="white" stroke-width="0.464381"/>
<path d="M658.449 683.894V1296.22" stroke="white" stroke-width="0.464381"/>
<path d="M688.17 683.894V1296.22" stroke="white" stroke-width="0.464381"/>
<path d="M717.889 683.894V1296.22" stroke="white" stroke-width="0.464381"/>
<path d="M747.609 683.894V1296.22" stroke="white" stroke-width="0.464381"/>
<path d="M777.33 683.894V1296.22" stroke="white" stroke-width="0.464381"/>
<path d="M807.051 683.894V1296.22" stroke="white" stroke-width="0.464381"/>
<path d="M836.77 683.894V1296.22" stroke="white" stroke-width="0.464381"/>
<path d="M866.492 683.894V1296.22" stroke="white" stroke-width="0.464381"/>
<path d="M896.213 683.894V1296.22" stroke="white" stroke-width="0.464381"/>
<path d="M925.928 683.894V1296.22" stroke="white" stroke-width="0.464381"/>
<path d="M955.658 683.894V1296.22" stroke="white" stroke-width="0.464381"/>
<path d="M985.367 683.894V1296.22" stroke="white" stroke-width="0.464381"/>
<path d="M1015.1 683.894V1296.22" stroke="white" stroke-width="0.464381"/>
<path d="M1044.82 683.894V1296.22" stroke="white" stroke-width="0.464381"/>
<path d="M1074.54 683.894V1296.22" stroke="white" stroke-width="0.464381"/>
<path d="M1104.26 683.894V1296.22" stroke="white" stroke-width="0.464381"/>
<path d="M1133.98 683.894V1296.22" stroke="white" stroke-width="0.464381"/>
<path d="M1163.7 683.894V1296.22" stroke="white" stroke-width="0.464381"/>
<path d="M1193.42 683.894V1296.22" stroke="white" stroke-width="0.464381"/>
<path d="M1223.14 683.894V1296.22" stroke="white" stroke-width="0.464381"/>
</g>
<mask id="mask1_2004_7454" style="mask-type:luminance" maskUnits="userSpaceOnUse" x="-174" y="683" width="1782" height="1152">
<path d="M1607.02 683.573H-173.445V1834.49H1607.02V683.573Z" fill="white"/>
</mask>
<g mask="url(#mask1_2004_7454)">
<path d="M-173.445 861.896L1607.02 861.896" stroke="white" stroke-width="0.464381"/>
<path d="M-173.445 891.616H1607.02" stroke="white" stroke-width="0.464381"/>
<path d="M-173.445 921.336H1607.02" stroke="white" stroke-width="0.464381"/>
<path d="M-173.445 951.057H1607.02" stroke="white" stroke-width="0.464381"/>
</g>
</g>
</g>
</g>
</g>
<rect width="1440" height="1040" fill="url(#paint0_linear_2004_7454)"/>
</g>
<defs>
<linearGradient id="paint0_linear_2004_7454" x1="720" y1="0" x2="720" y2="1040" gradientUnits="userSpaceOnUse">
<stop stop-color="#0E0F11" stop-opacity="0"/>
<stop offset="0.20242" stop-color="#0E0F11"/>
</linearGradient>
<clipPath id="clip0_2004_7454">
<rect width="1440" height="1040" fill="white"/>
</clipPath>
<clipPath id="clip1_2004_7454">
<rect width="1780.47" height="1150.92" fill="white" transform="translate(-87 -178)"/>
</clipPath>
<clipPath id="clip2_2004_7454">
<rect width="1780.47" height="1150.92" fill="white" transform="translate(-86.7227 -178.32)"/>
</clipPath>
<clipPath id="clip3_2004_7454">
<rect width="1440" height="973" fill="white" transform="translate(-86.7227 861.894)"/>
</clipPath>
</defs>
</svg>

