<svg width="338" height="224" viewBox="0 0 338 224" fill="none" xmlns="http://www.w3.org/2000/svg">
<mask id="mask0_2011_16760" style="mask-type:alpha" maskUnits="userSpaceOnUse" x="0" y="0" width="338" height="224">
<rect x="0.742188" width="336.742" height="224" fill="url(#paint0_diamond_2011_16760)"/>
</mask>
<g mask="url(#mask0_2011_16760)">
<g opacity="0.7">
<circle cx="207.164" cy="140.981" r="0.226604" fill="black" fill-opacity="0.5"/>
<circle cx="53.6784" cy="174.924" r="0.248705" fill="black" fill-opacity="0.3"/>
<circle cx="246.851" cy="174.918" r="0.241757" fill="black" fill-opacity="0.4"/>
<circle cx="244.334" cy="68.148" r="0.22028" fill="black" fill-opacity="0.5"/>
<circle cx="128.069" cy="116.886" r="0.280395" fill="black" fill-opacity="0.3"/>
<circle cx="239.936" cy="100.924" r="0.225146" fill="black" fill-opacity="0.5"/>
<circle cx="281.685" cy="50.4977" r="0.200777" fill="black" fill-opacity="0.4"/>
<circle cx="280.727" cy="62.7584" r="0.195924" fill="black" fill-opacity="0.5"/>
<circle cx="106.527" cy="124.481" r="0.207092" fill="black" fill-opacity="0.6"/>
<circle cx="168.799" cy="185.797" r="0.197766" fill="black" fill-opacity="0.4"/>
<circle cx="233.854" cy="30.0688" r="0.279717" fill="black" fill-opacity="0.4"/>
<circle cx="152.735" cy="160.527" r="0.226695" fill="black" fill-opacity="0.4"/>
<circle cx="216.025" cy="148.308" r="0.271014" fill="black" fill-opacity="0.5"/>
<circle cx="47.9366" cy="102.11" r="0.260768" fill="black" fill-opacity="0.3"/>
<circle cx="105.182" cy="104.926" r="0.201243" fill="black" fill-opacity="0.6"/>
<circle cx="241.868" cy="160.735" r="0.242964" fill="black" fill-opacity="0.4"/>
<circle cx="110.417" cy="174.749" r="0.265091" fill="black" fill-opacity="0.4"/>
<circle cx="106.951" cy="190.451" r="0.251464" fill="black" fill-opacity="0.3"/>
<circle cx="89.9041" cy="131.236" r="0.255632" fill="black" fill-opacity="0.5"/>
<circle cx="109.202" cy="47.8076" r="0.194319" fill="black" fill-opacity="0.5"/>
<circle cx="147.751" cy="82.7157" r="0.223537" fill="black" fill-opacity="0.6"/>
<circle cx="306.81" cy="113.372" r="0.215758" fill="black" fill-opacity="0.4"/>
<circle cx="108.676" cy="66.6413" r="0.246727" fill="black" fill-opacity="0.5"/>
<circle cx="274.238" cy="127.177" r="0.221959" fill="black" fill-opacity="0.6"/>
<circle cx="293.428" cy="166.682" r="0.248538" fill="black" fill-opacity="0.5"/>
<circle cx="163.253" cy="144.984" r="0.206509" fill="black" fill-opacity="0.5"/>
<circle cx="188.732" cy="137.307" r="0.193266" fill="black" fill-opacity="0.3"/>
<circle cx="178.795" cy="175.092" r="0.224738" fill="black" fill-opacity="0.5"/>
<circle cx="129.163" cy="187.741" r="0.225731" fill="black" fill-opacity="0.3"/>
<circle cx="106.337" cy="189.642" r="0.208362" fill="black" fill-opacity="0.5"/>
<circle cx="127.05" cy="64.3213" r="0.225619" fill="black" fill-opacity="0.5"/>
<circle cx="267.142" cy="76.7706" r="0.219802" fill="black" fill-opacity="0.4"/>
<circle cx="248.961" cy="158.825" r="0.246481" fill="black" fill-opacity="0.5"/>
<circle cx="114.432" cy="173.777" r="0.252107" fill="black" fill-opacity="0.3"/>
<circle cx="78.1963" cy="139.651" r="0.239276" fill="black" fill-opacity="0.4"/>
<circle cx="289.42" cy="64.5527" r="0.267502" fill="black" fill-opacity="0.6"/>
<circle cx="276.013" cy="57.4738" r="0.278463" fill="black" fill-opacity="0.4"/>
<circle cx="254.553" cy="175.912" r="0.279313" fill="black" fill-opacity="0.5"/>
<circle cx="57.0755" cy="138.076" r="0.196626" fill="black" fill-opacity="0.6"/>
<circle cx="181.348" cy="158.479" r="0.285775" fill="black" fill-opacity="0.4"/>
<circle cx="59.5982" cy="92.69" r="0.231017" fill="black" fill-opacity="0.5"/>
<circle cx="300.52" cy="180.676" r="0.250111" fill="black" fill-opacity="0.4"/>
<circle cx="189.535" cy="83.2987" r="0.230327" fill="black" fill-opacity="0.6"/>
<circle cx="199.86" cy="39.3839" r="0.204243" fill="black" fill-opacity="0.5"/>
<circle cx="145.647" cy="178.545" r="0.228708" fill="black" fill-opacity="0.4"/>
<circle cx="106.221" cy="131.071" r="0.283661" fill="black" fill-opacity="0.5"/>
<circle cx="292.61" cy="173.53" r="0.196191" fill="black" fill-opacity="0.5"/>
<circle cx="224.847" cy="186.071" r="0.280446" fill="black" fill-opacity="0.6"/>
<circle cx="88.1658" cy="85.4197" r="0.243932" fill="black" fill-opacity="0.6"/>
<circle cx="72.229" cy="179.106" r="0.213329" fill="black" fill-opacity="0.4"/>
<circle cx="51.9663" cy="114.189" r="0.267064" fill="black" fill-opacity="0.6"/>
<circle cx="294.389" cy="175.694" r="0.252488" fill="black" fill-opacity="0.4"/>
<circle cx="40.0592" cy="63.3795" r="0.24279" fill="black" fill-opacity="0.5"/>
<circle cx="296.118" cy="85.8175" r="0.25895" fill="black" fill-opacity="0.4"/>
<circle cx="179.785" cy="192.944" r="0.25409" fill="black" fill-opacity="0.6"/>
<circle cx="243.631" cy="135.478" r="0.283084" fill="black" fill-opacity="0.4"/>
<circle cx="206.034" cy="177.604" r="0.244934" fill="black" fill-opacity="0.3"/>
<circle cx="47.5784" cy="181.477" r="0.285416" fill="black" fill-opacity="0.5"/>
<circle cx="65.1462" cy="57.99" r="0.22042" fill="black" fill-opacity="0.4"/>
<circle cx="144.299" cy="87.5079" r="0.224645" fill="black" fill-opacity="0.3"/>
<circle cx="225.358" cy="70.8268" r="0.217437" fill="black" fill-opacity="0.5"/>
<circle cx="49.2742" cy="87.3484" r="0.25467" fill="black" fill-opacity="0.4"/>
<circle cx="105.025" cy="59.5408" r="0.236084" fill="black" fill-opacity="0.4"/>
<circle cx="38.2929" cy="148.81" r="0.199151" fill="black" fill-opacity="0.5"/>
<circle cx="78.7747" cy="174.915" r="0.239551" fill="black" fill-opacity="0.6"/>
<circle cx="37.6047" cy="134.515" r="0.276561" fill="black" fill-opacity="0.6"/>
<circle cx="232.293" cy="157.487" r="0.250448" fill="black" fill-opacity="0.5"/>
<circle cx="290.782" cy="134.333" r="0.286195" fill="black" fill-opacity="0.6"/>
<circle cx="178.411" cy="81.3757" r="0.223344" fill="black" fill-opacity="0.5"/>
<circle cx="274.867" cy="148.701" r="0.281086" fill="black" fill-opacity="0.4"/>
<circle cx="302.583" cy="34.7863" r="0.204284" fill="black" fill-opacity="0.5"/>
<circle cx="147.584" cy="99.6052" r="0.247732" fill="black" fill-opacity="0.4"/>
<circle cx="75.1151" cy="33.6561" r="0.224438" fill="black" fill-opacity="0.3"/>
<circle cx="140.907" cy="177.065" r="0.281552" fill="black" fill-opacity="0.6"/>
<circle cx="61.3224" cy="106.486" r="0.228633" fill="black" fill-opacity="0.5"/>
<circle cx="148.108" cy="195.766" r="0.201686" fill="black" fill-opacity="0.4"/>
<circle cx="53.6524" cy="167.424" r="0.222707" fill="black" fill-opacity="0.6"/>
<circle cx="99.6143" cy="154.169" r="0.192474" fill="black" fill-opacity="0.5"/>
<circle cx="153.499" cy="194.065" r="0.225204" fill="black" fill-opacity="0.5"/>
<circle cx="257.761" cy="102.659" r="0.23367" fill="black" fill-opacity="0.3"/>
<circle cx="171.33" cy="75.6348" r="0.232501" fill="black" fill-opacity="0.6"/>
<circle cx="75.3063" cy="97.6656" r="0.224224" fill="black" fill-opacity="0.6"/>
<circle cx="120.012" cy="166.325" r="0.274142" fill="black" fill-opacity="0.4"/>
<circle cx="298.553" cy="26.1588" r="0.201806" fill="black" fill-opacity="0.4"/>
<circle cx="285.955" cy="151.742" r="0.25592" fill="black" fill-opacity="0.4"/>
<circle cx="84.3465" cy="109.007" r="0.256628" fill="black" fill-opacity="0.5"/>
<circle cx="300.315" cy="35.2057" r="0.240884" fill="black" fill-opacity="0.5"/>
<circle cx="140.903" cy="191.243" r="0.278053" fill="black" fill-opacity="0.4"/>
<circle cx="68.5941" cy="172.979" r="0.219084" fill="black" fill-opacity="0.6"/>
<circle cx="129.141" cy="151.881" r="0.203266" fill="black" fill-opacity="0.4"/>
<circle cx="304.923" cy="167.257" r="0.24702" fill="black" fill-opacity="0.5"/>
<circle cx="129.743" cy="155.552" r="0.231733" fill="black" fill-opacity="0.3"/>
<circle cx="60.4111" cy="64.7568" r="0.278273" fill="black" fill-opacity="0.4"/>
<circle cx="66.1369" cy="44.6096" r="0.254103" fill="black" fill-opacity="0.5"/>
<circle cx="213.285" cy="180.453" r="0.218257" fill="black" fill-opacity="0.5"/>
<circle cx="202.229" cy="132.596" r="0.276081" fill="black" fill-opacity="0.6"/>
<circle cx="196.267" cy="31.7712" r="0.25553" fill="black" fill-opacity="0.6"/>
<circle cx="45.5833" cy="86.7219" r="0.204362" fill="black" fill-opacity="0.5"/>
<circle cx="88.911" cy="68.1474" r="0.219625" fill="black" fill-opacity="0.3"/>
<circle cx="82.9602" cy="119.499" r="0.210168" fill="black" fill-opacity="0.6"/>
<circle cx="50.6265" cy="157.689" r="0.263185" fill="black" fill-opacity="0.3"/>
<circle cx="293.798" cy="185.259" r="0.235927" fill="black" fill-opacity="0.6"/>
<circle cx="155.984" cy="153.999" r="0.214161" fill="black" fill-opacity="0.3"/>
<circle cx="56.3905" cy="69.742" r="0.281079" fill="black" fill-opacity="0.5"/>
<circle cx="118.481" cy="163.454" r="0.278165" fill="black" fill-opacity="0.6"/>
<circle cx="240.947" cy="150.232" r="0.278642" fill="black" fill-opacity="0.5"/>
<circle cx="58.6372" cy="185.631" r="0.223149" fill="black" fill-opacity="0.6"/>
<circle cx="165.19" cy="124.114" r="0.225526" fill="black" fill-opacity="0.3"/>
<circle cx="106.707" cy="187.136" r="0.194935" fill="black" fill-opacity="0.6"/>
<circle cx="133.952" cy="180.459" r="0.22509" fill="black" fill-opacity="0.5"/>
<circle cx="263.712" cy="28.6922" r="0.242944" fill="black" fill-opacity="0.5"/>
<circle cx="219.277" cy="88.1286" r="0.269219" fill="black" fill-opacity="0.4"/>
<circle cx="114.249" cy="109.585" r="0.260512" fill="black" fill-opacity="0.5"/>
<circle cx="270.38" cy="62.3765" r="0.196818" fill="black" fill-opacity="0.3"/>
<circle cx="239.967" cy="197.545" r="0.256066" fill="black" fill-opacity="0.4"/>
<circle cx="252.833" cy="185.695" r="0.286626" fill="black" fill-opacity="0.5"/>
<circle cx="121.162" cy="126.462" r="0.274821" fill="black" fill-opacity="0.4"/>
<circle cx="100.425" cy="170.505" r="0.237136" fill="black" fill-opacity="0.5"/>
<circle cx="179.405" cy="156.92" r="0.260075" fill="black" fill-opacity="0.3"/>
<circle cx="69.5547" cy="67" r="0.222634" fill="black" fill-opacity="0.4"/>
<circle cx="50.8094" cy="86.5848" r="0.258592" fill="black" fill-opacity="0.5"/>
<circle cx="116.141" cy="53.0273" r="0.238269" fill="black" fill-opacity="0.4"/>
<circle cx="266.372" cy="150.935" r="0.216027" fill="black" fill-opacity="0.3"/>
<circle cx="278.233" cy="111.434" r="0.193587" fill="black" fill-opacity="0.3"/>
<circle cx="220.804" cy="112.267" r="0.261128" fill="black" fill-opacity="0.4"/>
<circle cx="247.981" cy="36.7248" r="0.226774" fill="black" fill-opacity="0.4"/>
<circle cx="129.772" cy="78.7292" r="0.260419" fill="black" fill-opacity="0.4"/>
<circle cx="52.1049" cy="66.8002" r="0.214281" fill="black" fill-opacity="0.4"/>
<circle cx="51.7434" cy="195.226" r="0.235542" fill="black" fill-opacity="0.5"/>
<circle cx="204.341" cy="131.45" r="0.27813" fill="black" fill-opacity="0.5"/>
<circle cx="219.034" cy="58.9459" r="0.217381" fill="black" fill-opacity="0.6"/>
<circle cx="90.6239" cy="173.927" r="0.209852" fill="black" fill-opacity="0.4"/>
<circle cx="53.4437" cy="196.924" r="0.209331" fill="black" fill-opacity="0.5"/>
<circle cx="109.86" cy="63.2237" r="0.278403" fill="black" fill-opacity="0.6"/>
<circle cx="232.903" cy="112.292" r="0.286022" fill="black" fill-opacity="0.4"/>
<circle cx="230.132" cy="52.4114" r="0.19846" fill="black" fill-opacity="0.4"/>
<circle cx="140.26" cy="138.088" r="0.209578" fill="black" fill-opacity="0.3"/>
<circle cx="262.164" cy="114.529" r="0.222468" fill="black" fill-opacity="0.5"/>
<circle cx="242.064" cy="40.7715" r="0.248028" fill="black" fill-opacity="0.4"/>
<circle cx="183.252" cy="68.9709" r="0.275595" fill="black" fill-opacity="0.6"/>
<circle cx="77.2453" cy="104.777" r="0.245308" fill="black" fill-opacity="0.4"/>
<circle cx="296.717" cy="168.054" r="0.279015" fill="black" fill-opacity="0.5"/>
<circle cx="246.306" cy="149.077" r="0.274699" fill="black" fill-opacity="0.4"/>
<circle cx="264.907" cy="100.794" r="0.286222" fill="black" fill-opacity="0.6"/>
<circle cx="72.0751" cy="189.874" r="0.250838" fill="black" fill-opacity="0.4"/>
<circle cx="143.539" cy="136.194" r="0.230887" fill="black" fill-opacity="0.5"/>
<circle cx="232.13" cy="128.384" r="0.278481" fill="black" fill-opacity="0.5"/>
<circle cx="199.169" cy="34.2882" r="0.282345" fill="black" fill-opacity="0.6"/>
<circle cx="271.539" cy="74.4625" r="0.210525" fill="black" fill-opacity="0.5"/>
<circle cx="260.47" cy="96.1634" r="0.255226" fill="black" fill-opacity="0.4"/>
<circle cx="192.252" cy="122.619" r="0.263462" fill="black" fill-opacity="0.3"/>
<circle cx="306.629" cy="149.223" r="0.226432" fill="black" fill-opacity="0.4"/>
<circle cx="178.633" cy="177.229" r="0.254351" fill="black" fill-opacity="0.4"/>
<circle cx="261.564" cy="41.6812" r="0.20072" fill="black" fill-opacity="0.5"/>
<circle cx="179.605" cy="30.2435" r="0.261098" fill="black" fill-opacity="0.6"/>
<circle cx="70.5381" cy="87.917" r="0.248995" fill="black" fill-opacity="0.4"/>
<circle cx="31.8613" cy="116.314" r="0.283158" fill="black" fill-opacity="0.3"/>
<circle cx="251.233" cy="43.4225" r="0.217447" fill="black" fill-opacity="0.5"/>
<circle cx="217.348" cy="62.6231" r="0.253958" fill="black" fill-opacity="0.3"/>
<circle cx="196.997" cy="74.663" r="0.219615" fill="black" fill-opacity="0.4"/>
<circle cx="146.635" cy="120.314" r="0.259646" fill="black" fill-opacity="0.4"/>
<circle cx="122.665" cy="118.771" r="0.247092" fill="black" fill-opacity="0.4"/>
<circle cx="192.834" cy="172.267" r="0.274999" fill="black" fill-opacity="0.5"/>
<circle cx="203.308" cy="175.073" r="0.206097" fill="black" fill-opacity="0.5"/>
<circle cx="263.36" cy="120.518" r="0.270435" fill="black" fill-opacity="0.5"/>
<circle cx="50.7842" cy="129.296" r="0.233404" fill="black" fill-opacity="0.6"/>
<circle cx="80.4579" cy="128.501" r="0.203951" fill="black" fill-opacity="0.3"/>
<circle cx="183.778" cy="77.7288" r="0.219006" fill="black" fill-opacity="0.6"/>
<circle cx="156.55" cy="55.4892" r="0.209938" fill="black" fill-opacity="0.4"/>
<circle cx="33.1827" cy="103.644" r="0.26079" fill="black" fill-opacity="0.6"/>
<circle cx="264.442" cy="32.6765" r="0.203861" fill="black" fill-opacity="0.5"/>
<circle cx="217.948" cy="35.0538" r="0.280374" fill="black" fill-opacity="0.4"/>
<circle cx="184.738" cy="131.398" r="0.226279" fill="black" fill-opacity="0.6"/>
<circle cx="226.88" cy="185.61" r="0.203989" fill="black" fill-opacity="0.5"/>
<circle cx="273.708" cy="97.7119" r="0.270521" fill="black" fill-opacity="0.5"/>
<circle cx="189.558" cy="46.7158" r="0.252948" fill="black" fill-opacity="0.5"/>
<circle cx="77.2797" cy="27.1938" r="0.27969" fill="black" fill-opacity="0.5"/>
<circle cx="91.5812" cy="74.2706" r="0.210091" fill="black" fill-opacity="0.6"/>
<circle cx="275.813" cy="160.188" r="0.270482" fill="black" fill-opacity="0.6"/>
<circle cx="58.2281" cy="127.923" r="0.200721" fill="black" fill-opacity="0.6"/>
<circle cx="306.66" cy="140.629" r="0.257469" fill="black" fill-opacity="0.4"/>
<circle cx="239.742" cy="37.8786" r="0.23014" fill="black" fill-opacity="0.4"/>
<circle cx="177.501" cy="151.569" r="0.274087" fill="black" fill-opacity="0.6"/>
<circle cx="89.7369" cy="127.811" r="0.279858" fill="black" fill-opacity="0.4"/>
<circle cx="107.129" cy="121.246" r="0.230463" fill="black" fill-opacity="0.5"/>
<circle cx="231.529" cy="84.4706" r="0.251801" fill="black" fill-opacity="0.4"/>
<circle cx="296.704" cy="72.9848" r="0.266101" fill="black" fill-opacity="0.3"/>
<circle cx="52.5087" cy="28.2958" r="0.231341" fill="black" fill-opacity="0.5"/>
<circle cx="210.073" cy="70.6785" r="0.260511" fill="black" fill-opacity="0.5"/>
<circle cx="123.047" cy="37.7012" r="0.246134" fill="black" fill-opacity="0.6"/>
<circle cx="41.9381" cy="77.3307" r="0.203732" fill="black" fill-opacity="0.3"/>
<circle cx="254.299" cy="113.374" r="0.217417" fill="black" fill-opacity="0.4"/>
<circle cx="303.765" cy="177.597" r="0.237361" fill="black" fill-opacity="0.4"/>
<circle cx="143.381" cy="90.4202" r="0.260028" fill="black" fill-opacity="0.5"/>
<circle cx="45.0687" cy="47.1136" r="0.267876" fill="black" fill-opacity="0.5"/>
<circle cx="155.091" cy="68.7879" r="0.285907" fill="black" fill-opacity="0.5"/>
<circle cx="233.833" cy="169.567" r="0.258719" fill="black" fill-opacity="0.6"/>
<circle cx="64.1852" cy="172.404" r="0.220314" fill="black" fill-opacity="0.5"/>
<circle cx="160.22" cy="82.7276" r="0.235376" fill="black" fill-opacity="0.6"/>
<circle cx="141.278" cy="132.395" r="0.266511" fill="black" fill-opacity="0.4"/>
<circle cx="137.998" cy="68.7463" r="0.244373" fill="black" fill-opacity="0.5"/>
<circle cx="168.638" cy="39.98" r="0.224167" fill="black" fill-opacity="0.5"/>
<circle cx="238.559" cy="72.5316" r="0.1957" fill="black" fill-opacity="0.3"/>
<circle cx="230.719" cy="187.723" r="0.207764" fill="black" fill-opacity="0.5"/>
<circle cx="127.076" cy="29.6585" r="0.252272" fill="black" fill-opacity="0.5"/>
<circle cx="260.085" cy="146.952" r="0.257177" fill="black" fill-opacity="0.6"/>
<circle cx="104.025" cy="139.414" r="0.192918" fill="black" fill-opacity="0.3"/>
<circle cx="39.6923" cy="29.8564" r="0.258726" fill="black" fill-opacity="0.4"/>
<circle cx="83.9212" cy="109.538" r="0.214143" fill="black" fill-opacity="0.5"/>
<circle cx="114.802" cy="35.9701" r="0.239652" fill="black" fill-opacity="0.4"/>
<circle cx="90.1241" cy="113.823" r="0.284257" fill="black" fill-opacity="0.5"/>
<circle cx="76.6623" cy="51.4943" r="0.240429" fill="black" fill-opacity="0.5"/>
<circle cx="73.4349" cy="94.6419" r="0.26689" fill="black" fill-opacity="0.5"/>
<circle cx="63.4765" cy="179.74" r="0.273393" fill="black" fill-opacity="0.6"/>
<circle cx="85.2642" cy="39.5864" r="0.213369" fill="black" fill-opacity="0.4"/>
<circle cx="257.394" cy="48.0537" r="0.249007" fill="black" fill-opacity="0.5"/>
<circle cx="45.019" cy="42.4643" r="0.218251" fill="black" fill-opacity="0.5"/>
<circle cx="122.508" cy="197.762" r="0.281133" fill="black" fill-opacity="0.5"/>
<circle cx="148.565" cy="187.792" r="0.276347" fill="black" fill-opacity="0.6"/>
<circle cx="157.515" cy="159.749" r="0.213742" fill="black" fill-opacity="0.5"/>
<circle cx="50.0573" cy="77.5944" r="0.276001" fill="black" fill-opacity="0.4"/>
<circle cx="89.4766" cy="165.496" r="0.211008" fill="black" fill-opacity="0.5"/>
<circle cx="59.0524" cy="187.963" r="0.255508" fill="black" fill-opacity="0.4"/>
<circle cx="113.23" cy="83.0738" r="0.198779" fill="black" fill-opacity="0.4"/>
<circle cx="81.2493" cy="182.566" r="0.225846" fill="black" fill-opacity="0.6"/>
<circle cx="173.992" cy="27.701" r="0.210816" fill="black" fill-opacity="0.6"/>
<circle cx="208.723" cy="44.0331" r="0.253758" fill="black" fill-opacity="0.4"/>
<circle cx="207.19" cy="49.5904" r="0.252513" fill="black" fill-opacity="0.4"/>
<circle cx="168.257" cy="136.571" r="0.225723" fill="black" fill-opacity="0.6"/>
<circle cx="249.506" cy="163.586" r="0.217252" fill="black" fill-opacity="0.3"/>
<circle cx="103.448" cy="151.296" r="0.1943" fill="black" fill-opacity="0.4"/>
<circle cx="289.185" cy="123.347" r="0.223876" fill="black" fill-opacity="0.5"/>
<circle cx="175.763" cy="183.362" r="0.254937" fill="black" fill-opacity="0.3"/>
<circle cx="149.457" cy="195.389" r="0.207061" fill="black" fill-opacity="0.4"/>
<circle cx="248.948" cy="54.3616" r="0.232741" fill="black" fill-opacity="0.6"/>
<circle cx="63.5886" cy="110.475" r="0.194034" fill="black" fill-opacity="0.3"/>
<circle cx="163.114" cy="60.3287" r="0.258359" fill="black" fill-opacity="0.6"/>
<circle cx="297.607" cy="149.208" r="0.211986" fill="black" fill-opacity="0.4"/>
<circle cx="246.096" cy="60.3223" r="0.252032" fill="black" fill-opacity="0.5"/>
<circle cx="117.283" cy="50.5253" r="0.228424" fill="black" fill-opacity="0.3"/>
<circle cx="270.463" cy="138.35" r="0.279862" fill="black" fill-opacity="0.5"/>
<circle cx="31.454" cy="93.6747" r="0.258643" fill="black" fill-opacity="0.6"/>
<circle cx="135.919" cy="69.5442" r="0.274632" fill="black" fill-opacity="0.5"/>
<circle cx="83.1697" cy="50.5252" r="0.228326" fill="black" fill-opacity="0.4"/>
<circle cx="210.207" cy="183.119" r="0.20333" fill="black" fill-opacity="0.6"/>
<circle cx="254.503" cy="51.6745" r="0.229171" fill="black" fill-opacity="0.5"/>
<circle cx="168.421" cy="134.628" r="0.198515" fill="black" fill-opacity="0.3"/>
<circle cx="135.886" cy="151.728" r="0.241476" fill="black" fill-opacity="0.4"/>
<circle cx="270.259" cy="142.364" r="0.270506" fill="black" fill-opacity="0.4"/>
<circle cx="77.4392" cy="108.039" r="0.24776" fill="black" fill-opacity="0.3"/>
<circle cx="54.9975" cy="57.2319" r="0.227975" fill="black" fill-opacity="0.3"/>
<circle cx="54.628" cy="143.296" r="0.241255" fill="black" fill-opacity="0.6"/>
<circle cx="268.54" cy="57.4693" r="0.273988" fill="black" fill-opacity="0.4"/>
<circle cx="122.109" cy="148.685" r="0.265358" fill="black" fill-opacity="0.6"/>
<circle cx="235.174" cy="131.432" r="0.260056" fill="black" fill-opacity="0.6"/>
<circle cx="198.136" cy="68.9018" r="0.206503" fill="black" fill-opacity="0.5"/>
<circle cx="216.342" cy="161.274" r="0.205487" fill="black" fill-opacity="0.6"/>
<circle cx="162.706" cy="71.2271" r="0.232958" fill="black" fill-opacity="0.5"/>
<circle cx="219.209" cy="192.7" r="0.201664" fill="black" fill-opacity="0.4"/>
<circle cx="104.087" cy="104.021" r="0.255383" fill="black" fill-opacity="0.4"/>
<circle cx="89.6559" cy="67.359" r="0.198851" fill="black" fill-opacity="0.4"/>
<circle cx="186.054" cy="147.085" r="0.198563" fill="black" fill-opacity="0.4"/>
<circle cx="191.454" cy="193.31" r="0.235691" fill="black" fill-opacity="0.4"/>
<circle cx="239.023" cy="137.965" r="0.277018" fill="black" fill-opacity="0.4"/>
<circle cx="190.913" cy="94.8352" r="0.268781" fill="black" fill-opacity="0.4"/>
<circle cx="81.4638" cy="101.136" r="0.245003" fill="black" fill-opacity="0.6"/>
<circle cx="41.4068" cy="57.6334" r="0.246691" fill="black" fill-opacity="0.4"/>
<circle cx="213.463" cy="50.6931" r="0.204808" fill="black" fill-opacity="0.5"/>
<circle cx="218.321" cy="33.7021" r="0.270505" fill="black" fill-opacity="0.5"/>
<circle cx="42.7056" cy="136.356" r="0.20172" fill="black" fill-opacity="0.4"/>
<circle cx="63.2511" cy="28.88" r="0.23936" fill="black" fill-opacity="0.4"/>
<circle cx="96.5946" cy="121.061" r="0.239109" fill="black" fill-opacity="0.3"/>
<circle cx="228.806" cy="120.652" r="0.212624" fill="black" fill-opacity="0.4"/>
<circle cx="123.438" cy="74.5025" r="0.25057" fill="black" fill-opacity="0.3"/>
<circle cx="303.92" cy="61.0433" r="0.205447" fill="black" fill-opacity="0.4"/>
<circle cx="86.428" cy="134.276" r="0.228786" fill="black" fill-opacity="0.5"/>
<circle cx="32.94" cy="58.9419" r="0.213425" fill="black" fill-opacity="0.4"/>
<circle cx="96.3867" cy="196.363" r="0.222668" fill="black" fill-opacity="0.3"/>
<circle cx="280.181" cy="184.681" r="0.231914" fill="black" fill-opacity="0.4"/>
<circle cx="129.711" cy="53.1795" r="0.199012" fill="black" fill-opacity="0.3"/>
<circle cx="167.272" cy="180.627" r="0.201537" fill="black" fill-opacity="0.6"/>
<circle cx="143.574" cy="74.9023" r="0.265613" fill="black" fill-opacity="0.5"/>
<circle cx="281.342" cy="66.4437" r="0.240589" fill="black" fill-opacity="0.4"/>
<circle cx="162.679" cy="157.25" r="0.206616" fill="black" fill-opacity="0.5"/>
<circle cx="168.277" cy="154.222" r="0.245417" fill="black" fill-opacity="0.4"/>
<circle cx="144.841" cy="52.0204" r="0.192288" fill="black" fill-opacity="0.6"/>
<circle cx="293.565" cy="82.1156" r="0.197669" fill="black" fill-opacity="0.3"/>
<circle cx="38.5113" cy="90.9566" r="0.222218" fill="black" fill-opacity="0.5"/>
<circle cx="121.519" cy="85.8084" r="0.24977" fill="black" fill-opacity="0.3"/>
<circle cx="183.984" cy="102.47" r="0.237833" fill="black" fill-opacity="0.5"/>
<circle cx="90.2877" cy="50.7447" r="0.256459" fill="black" fill-opacity="0.5"/>
<circle cx="295.719" cy="140.231" r="0.242524" fill="black" fill-opacity="0.4"/>
<circle cx="306.623" cy="58.7582" r="0.221108" fill="black" fill-opacity="0.3"/>
<circle cx="175.982" cy="30.265" r="0.282576" fill="black" fill-opacity="0.6"/>
<circle cx="90.432" cy="44.9477" r="0.209377" fill="black" fill-opacity="0.5"/>
<circle cx="32.3475" cy="165.097" r="0.195111" fill="black" fill-opacity="0.4"/>
<circle cx="34.0771" cy="108.948" r="0.198167" fill="black" fill-opacity="0.4"/>
<circle cx="279.626" cy="44.9854" r="0.247078" fill="black" fill-opacity="0.4"/>
<circle cx="174.211" cy="158.626" r="0.238788" fill="black" fill-opacity="0.4"/>
<circle cx="145.451" cy="83.0991" r="0.224067" fill="black" fill-opacity="0.5"/>
</g>
<g opacity="0.9">
<g opacity="0.15">
<g clip-path="url(#clip0_2011_16760)">
<path d="M2.62109 25.2305V637.555" stroke="black" stroke-width="0.464381"/>
<path d="M32.3418 25.2305V637.555" stroke="black" stroke-width="0.464381"/>
<path d="M62.0625 25.2305V637.555" stroke="black" stroke-width="0.464381"/>
<path d="M91.7832 25.2305V637.555" stroke="black" stroke-width="0.464381"/>
<path d="M121.502 25.2305V637.555" stroke="black" stroke-width="0.464381"/>
<path d="M151.223 25.2305V637.555" stroke="black" stroke-width="0.464381"/>
<path d="M180.943 25.2305V637.555" stroke="black" stroke-width="0.464381"/>
<path d="M210.664 25.2305V637.555" stroke="black" stroke-width="0.464381"/>
<path d="M240.385 25.2305V637.555" stroke="black" stroke-width="0.464381"/>
<path d="M270.105 25.2305V637.555" stroke="black" stroke-width="0.464381"/>
<path d="M299.824 25.2305V637.555" stroke="black" stroke-width="0.464381"/>
<path d="M329.545 25.2305V637.555" stroke="black" stroke-width="0.464381"/>
</g>
<g clip-path="url(#clip1_2011_16760)">
<path d="M2.62109 25.2305L406.711 25.2305" stroke="black" stroke-width="0.464381"/>
<path d="M2.62109 54.9512L406.711 54.9512" stroke="black" stroke-width="0.464381"/>
<path d="M2.62109 84.6709L406.711 84.6709" stroke="black" stroke-width="0.464381"/>
<path d="M2.62109 114.392L406.711 114.392" stroke="black" stroke-width="0.464381"/>
<path d="M2.62109 144.112L406.711 144.112" stroke="black" stroke-width="0.464381"/>
<path d="M2.62109 173.832L406.711 173.832" stroke="black" stroke-width="0.464381"/>
<path d="M2.62109 203.553L406.711 203.553" stroke="black" stroke-width="0.464381"/>
</g>
</g>
</g>
</g>
<defs>
<radialGradient id="paint0_diamond_2011_16760" cx="0" cy="0" r="1" gradientUnits="userSpaceOnUse" gradientTransform="translate(169.113 96.9056) rotate(90) scale(121.974 283.767)">
<stop stop-color="white"/>
<stop offset="1" stop-color="#D9D9D9" stop-opacity="0"/>
</radialGradient>
<clipPath id="clip0_2011_16760">
<rect width="404.09" height="261.209" fill="white" transform="translate(2.62109 25.2305)"/>
</clipPath>
<clipPath id="clip1_2011_16760">
<rect width="404.09" height="261.209" fill="white" transform="translate(2.62109 25.2305)"/>
</clipPath>
</defs>
</svg>
