<svg width="337" height="224" viewBox="0 0 337 224" fill="none" xmlns="http://www.w3.org/2000/svg">
<mask id="mask0_2011_16355" style="mask-type:alpha" maskUnits="userSpaceOnUse" x="0" y="0" width="337" height="224">
<rect opacity="0.7" width="336.742" height="224" fill="url(#paint0_diamond_2011_16355)"/>
</mask>
<g mask="url(#mask0_2011_16355)">
<g opacity="0.7">
<circle cx="206.422" cy="140.981" r="0.226604" fill="white" fill-opacity="0.5"/>
<circle cx="52.9362" cy="174.924" r="0.248705" fill="white" fill-opacity="0.3"/>
<circle cx="246.109" cy="174.918" r="0.241757" fill="white" fill-opacity="0.4"/>
<circle cx="243.591" cy="68.148" r="0.22028" fill="white" fill-opacity="0.5"/>
<circle cx="127.327" cy="116.886" r="0.280395" fill="white" fill-opacity="0.3"/>
<circle cx="239.194" cy="100.924" r="0.225146" fill="white" fill-opacity="0.5"/>
<circle cx="280.943" cy="50.4977" r="0.200777" fill="white" fill-opacity="0.4"/>
<circle cx="279.985" cy="62.7584" r="0.195924" fill="white" fill-opacity="0.5"/>
<circle cx="105.785" cy="124.481" r="0.207092" fill="white" fill-opacity="0.6"/>
<circle cx="168.057" cy="185.797" r="0.197766" fill="white" fill-opacity="0.4"/>
<circle cx="233.112" cy="30.0688" r="0.279717" fill="white" fill-opacity="0.4"/>
<circle cx="151.992" cy="160.527" r="0.226695" fill="white" fill-opacity="0.4"/>
<circle cx="215.283" cy="148.308" r="0.271014" fill="white" fill-opacity="0.5"/>
<circle cx="47.1944" cy="102.11" r="0.260768" fill="white" fill-opacity="0.3"/>
<circle cx="104.44" cy="104.926" r="0.201243" fill="white" fill-opacity="0.6"/>
<circle cx="241.126" cy="160.735" r="0.242964" fill="white" fill-opacity="0.4"/>
<circle cx="109.675" cy="174.749" r="0.265091" fill="white" fill-opacity="0.4"/>
<circle cx="106.208" cy="190.451" r="0.251464" fill="white" fill-opacity="0.3"/>
<circle cx="89.1619" cy="131.236" r="0.255632" fill="white" fill-opacity="0.5"/>
<circle cx="108.46" cy="47.8076" r="0.194319" fill="white" fill-opacity="0.5"/>
<circle cx="147.009" cy="82.7157" r="0.223537" fill="white" fill-opacity="0.6"/>
<circle cx="306.067" cy="113.372" r="0.215758" fill="white" fill-opacity="0.4"/>
<circle cx="107.934" cy="66.6413" r="0.246727" fill="white" fill-opacity="0.5"/>
<circle cx="273.495" cy="127.177" r="0.221959" fill="white" fill-opacity="0.6"/>
<circle cx="292.686" cy="166.682" r="0.248538" fill="white" fill-opacity="0.5"/>
<circle cx="162.511" cy="144.984" r="0.206509" fill="white" fill-opacity="0.5"/>
<circle cx="187.99" cy="137.307" r="0.193266" fill="white" fill-opacity="0.3"/>
<circle cx="178.053" cy="175.092" r="0.224738" fill="white" fill-opacity="0.5"/>
<circle cx="128.421" cy="187.741" r="0.225731" fill="white" fill-opacity="0.3"/>
<circle cx="105.595" cy="189.642" r="0.208362" fill="white" fill-opacity="0.5"/>
<circle cx="126.308" cy="64.3213" r="0.225619" fill="white" fill-opacity="0.5"/>
<circle cx="266.399" cy="76.7706" r="0.219802" fill="white" fill-opacity="0.4"/>
<circle cx="248.219" cy="158.825" r="0.246481" fill="white" fill-opacity="0.5"/>
<circle cx="113.69" cy="173.777" r="0.252107" fill="white" fill-opacity="0.3"/>
<circle cx="77.4541" cy="139.651" r="0.239276" fill="white" fill-opacity="0.4"/>
<circle cx="288.678" cy="64.5527" r="0.267502" fill="white" fill-opacity="0.6"/>
<circle cx="275.271" cy="57.4738" r="0.278463" fill="white" fill-opacity="0.4"/>
<circle cx="253.811" cy="175.912" r="0.279313" fill="white" fill-opacity="0.5"/>
<circle cx="56.3333" cy="138.076" r="0.196626" fill="white" fill-opacity="0.6"/>
<circle cx="180.606" cy="158.479" r="0.285775" fill="white" fill-opacity="0.4"/>
<circle cx="58.856" cy="92.69" r="0.231017" fill="white" fill-opacity="0.5"/>
<circle cx="299.777" cy="180.676" r="0.250111" fill="white" fill-opacity="0.4"/>
<circle cx="188.793" cy="83.2987" r="0.230327" fill="white" fill-opacity="0.6"/>
<circle cx="199.118" cy="39.3839" r="0.204243" fill="white" fill-opacity="0.5"/>
<circle cx="144.904" cy="178.545" r="0.228708" fill="white" fill-opacity="0.4"/>
<circle cx="105.479" cy="131.071" r="0.283661" fill="white" fill-opacity="0.5"/>
<circle cx="291.868" cy="173.53" r="0.196191" fill="white" fill-opacity="0.5"/>
<circle cx="224.105" cy="186.071" r="0.280446" fill="white" fill-opacity="0.6"/>
<circle cx="87.4236" cy="85.4197" r="0.243932" fill="white" fill-opacity="0.6"/>
<circle cx="71.4868" cy="179.106" r="0.213329" fill="white" fill-opacity="0.4"/>
<circle cx="51.2241" cy="114.189" r="0.267064" fill="white" fill-opacity="0.6"/>
<circle cx="293.647" cy="175.694" r="0.252488" fill="white" fill-opacity="0.4"/>
<circle cx="39.317" cy="63.3795" r="0.24279" fill="white" fill-opacity="0.5"/>
<circle cx="295.376" cy="85.8175" r="0.25895" fill="white" fill-opacity="0.4"/>
<circle cx="179.043" cy="192.944" r="0.25409" fill="white" fill-opacity="0.6"/>
<circle cx="242.889" cy="135.478" r="0.283084" fill="white" fill-opacity="0.4"/>
<circle cx="205.292" cy="177.604" r="0.244934" fill="white" fill-opacity="0.3"/>
<circle cx="46.8362" cy="181.477" r="0.285416" fill="white" fill-opacity="0.5"/>
<circle cx="64.404" cy="57.99" r="0.22042" fill="white" fill-opacity="0.4"/>
<circle cx="143.557" cy="87.5079" r="0.224645" fill="white" fill-opacity="0.3"/>
<circle cx="224.616" cy="70.8268" r="0.217437" fill="white" fill-opacity="0.5"/>
<circle cx="48.532" cy="87.3484" r="0.25467" fill="white" fill-opacity="0.4"/>
<circle cx="104.283" cy="59.5408" r="0.236084" fill="white" fill-opacity="0.4"/>
<circle cx="37.5507" cy="148.81" r="0.199151" fill="white" fill-opacity="0.5"/>
<circle cx="78.0325" cy="174.915" r="0.239551" fill="white" fill-opacity="0.6"/>
<circle cx="36.8625" cy="134.515" r="0.276561" fill="white" fill-opacity="0.6"/>
<circle cx="231.551" cy="157.487" r="0.250448" fill="white" fill-opacity="0.5"/>
<circle cx="290.04" cy="134.333" r="0.286195" fill="white" fill-opacity="0.6"/>
<circle cx="177.669" cy="81.3757" r="0.223344" fill="white" fill-opacity="0.5"/>
<circle cx="274.125" cy="148.701" r="0.281086" fill="white" fill-opacity="0.4"/>
<circle cx="301.841" cy="34.7863" r="0.204284" fill="white" fill-opacity="0.5"/>
<circle cx="146.841" cy="99.6052" r="0.247732" fill="white" fill-opacity="0.4"/>
<circle cx="74.3729" cy="33.6561" r="0.224438" fill="white" fill-opacity="0.3"/>
<circle cx="140.164" cy="177.065" r="0.281552" fill="white" fill-opacity="0.6"/>
<circle cx="60.5802" cy="106.486" r="0.228633" fill="white" fill-opacity="0.5"/>
<circle cx="147.366" cy="195.766" r="0.201686" fill="white" fill-opacity="0.4"/>
<circle cx="52.9102" cy="167.424" r="0.222707" fill="white" fill-opacity="0.6"/>
<circle cx="98.8722" cy="154.169" r="0.192474" fill="white" fill-opacity="0.5"/>
<circle cx="152.756" cy="194.065" r="0.225204" fill="white" fill-opacity="0.5"/>
<circle cx="257.019" cy="102.659" r="0.23367" fill="white" fill-opacity="0.3"/>
<circle cx="170.588" cy="75.6348" r="0.232501" fill="white" fill-opacity="0.6"/>
<circle cx="74.5641" cy="97.6656" r="0.224224" fill="white" fill-opacity="0.6"/>
<circle cx="119.27" cy="166.325" r="0.274142" fill="white" fill-opacity="0.4"/>
<circle cx="297.811" cy="26.1588" r="0.201806" fill="white" fill-opacity="0.4"/>
<circle cx="285.213" cy="151.742" r="0.25592" fill="white" fill-opacity="0.4"/>
<circle cx="83.6043" cy="109.007" r="0.256628" fill="white" fill-opacity="0.5"/>
<circle cx="299.573" cy="35.2057" r="0.240884" fill="white" fill-opacity="0.5"/>
<circle cx="140.161" cy="191.243" r="0.278053" fill="white" fill-opacity="0.4"/>
<circle cx="67.8519" cy="172.979" r="0.219084" fill="white" fill-opacity="0.6"/>
<circle cx="128.399" cy="151.881" r="0.203266" fill="white" fill-opacity="0.4"/>
<circle cx="304.181" cy="167.257" r="0.24702" fill="white" fill-opacity="0.5"/>
<circle cx="129.001" cy="155.552" r="0.231733" fill="white" fill-opacity="0.3"/>
<circle cx="59.6689" cy="64.7568" r="0.278273" fill="white" fill-opacity="0.4"/>
<circle cx="65.3947" cy="44.6096" r="0.254103" fill="white" fill-opacity="0.5"/>
<circle cx="212.542" cy="180.453" r="0.218257" fill="white" fill-opacity="0.5"/>
<circle cx="201.487" cy="132.596" r="0.276081" fill="white" fill-opacity="0.6"/>
<circle cx="195.525" cy="31.7712" r="0.25553" fill="white" fill-opacity="0.6"/>
<circle cx="44.8411" cy="86.7219" r="0.204362" fill="white" fill-opacity="0.5"/>
<circle cx="88.1688" cy="68.1474" r="0.219625" fill="white" fill-opacity="0.3"/>
<circle cx="82.218" cy="119.499" r="0.210168" fill="white" fill-opacity="0.6"/>
<circle cx="49.8843" cy="157.689" r="0.263185" fill="white" fill-opacity="0.3"/>
<circle cx="293.056" cy="185.259" r="0.235927" fill="white" fill-opacity="0.6"/>
<circle cx="155.242" cy="153.999" r="0.214161" fill="white" fill-opacity="0.3"/>
<circle cx="55.6483" cy="69.742" r="0.281079" fill="white" fill-opacity="0.5"/>
<circle cx="117.739" cy="163.454" r="0.278165" fill="white" fill-opacity="0.6"/>
<circle cx="240.204" cy="150.232" r="0.278642" fill="white" fill-opacity="0.5"/>
<circle cx="57.895" cy="185.631" r="0.223149" fill="white" fill-opacity="0.6"/>
<circle cx="164.448" cy="124.114" r="0.225526" fill="white" fill-opacity="0.3"/>
<circle cx="105.964" cy="187.136" r="0.194935" fill="white" fill-opacity="0.6"/>
<circle cx="133.209" cy="180.459" r="0.22509" fill="white" fill-opacity="0.5"/>
<circle cx="262.97" cy="28.6922" r="0.242944" fill="white" fill-opacity="0.5"/>
<circle cx="218.535" cy="88.1286" r="0.269219" fill="white" fill-opacity="0.4"/>
<circle cx="113.507" cy="109.585" r="0.260512" fill="white" fill-opacity="0.5"/>
<circle cx="269.638" cy="62.3765" r="0.196818" fill="white" fill-opacity="0.3"/>
<circle cx="239.225" cy="197.545" r="0.256066" fill="white" fill-opacity="0.4"/>
<circle cx="252.091" cy="185.695" r="0.286626" fill="white" fill-opacity="0.5"/>
<circle cx="120.419" cy="126.462" r="0.274821" fill="white" fill-opacity="0.4"/>
<circle cx="99.6824" cy="170.505" r="0.237136" fill="white" fill-opacity="0.5"/>
<circle cx="178.662" cy="156.92" r="0.260075" fill="white" fill-opacity="0.3"/>
<circle cx="68.8125" cy="67" r="0.222634" fill="white" fill-opacity="0.4"/>
<circle cx="50.0672" cy="86.5848" r="0.258592" fill="white" fill-opacity="0.5"/>
<circle cx="115.398" cy="53.0273" r="0.238269" fill="white" fill-opacity="0.4"/>
<circle cx="265.63" cy="150.935" r="0.216027" fill="white" fill-opacity="0.3"/>
<circle cx="277.49" cy="111.434" r="0.193587" fill="white" fill-opacity="0.3"/>
<circle cx="220.062" cy="112.267" r="0.261128" fill="white" fill-opacity="0.4"/>
<circle cx="247.238" cy="36.7248" r="0.226774" fill="white" fill-opacity="0.4"/>
<circle cx="129.03" cy="78.7292" r="0.260419" fill="white" fill-opacity="0.4"/>
<circle cx="51.3627" cy="66.8002" r="0.214281" fill="white" fill-opacity="0.4"/>
<circle cx="51.0012" cy="195.226" r="0.235542" fill="white" fill-opacity="0.5"/>
<circle cx="203.598" cy="131.45" r="0.27813" fill="white" fill-opacity="0.5"/>
<circle cx="218.292" cy="58.9459" r="0.217381" fill="white" fill-opacity="0.6"/>
<circle cx="89.8817" cy="173.927" r="0.209852" fill="white" fill-opacity="0.4"/>
<circle cx="52.7015" cy="196.924" r="0.209331" fill="white" fill-opacity="0.5"/>
<circle cx="109.118" cy="63.2237" r="0.278403" fill="white" fill-opacity="0.6"/>
<circle cx="232.161" cy="112.292" r="0.286022" fill="white" fill-opacity="0.4"/>
<circle cx="229.39" cy="52.4114" r="0.19846" fill="white" fill-opacity="0.4"/>
<circle cx="139.518" cy="138.088" r="0.209578" fill="white" fill-opacity="0.3"/>
<circle cx="261.422" cy="114.529" r="0.222468" fill="white" fill-opacity="0.5"/>
<circle cx="241.322" cy="40.7715" r="0.248028" fill="white" fill-opacity="0.4"/>
<circle cx="182.51" cy="68.9709" r="0.275595" fill="white" fill-opacity="0.6"/>
<circle cx="76.5031" cy="104.777" r="0.245308" fill="white" fill-opacity="0.4"/>
<circle cx="295.974" cy="168.054" r="0.279015" fill="white" fill-opacity="0.5"/>
<circle cx="245.564" cy="149.077" r="0.274699" fill="white" fill-opacity="0.4"/>
<circle cx="264.165" cy="100.794" r="0.286222" fill="white" fill-opacity="0.6"/>
<circle cx="71.3329" cy="189.874" r="0.250838" fill="white" fill-opacity="0.4"/>
<circle cx="142.797" cy="136.194" r="0.230887" fill="white" fill-opacity="0.5"/>
<circle cx="231.388" cy="128.384" r="0.278481" fill="white" fill-opacity="0.5"/>
<circle cx="198.427" cy="34.2882" r="0.282345" fill="white" fill-opacity="0.6"/>
<circle cx="270.796" cy="74.4625" r="0.210525" fill="white" fill-opacity="0.5"/>
<circle cx="259.728" cy="96.1634" r="0.255226" fill="white" fill-opacity="0.4"/>
<circle cx="191.51" cy="122.619" r="0.263462" fill="white" fill-opacity="0.3"/>
<circle cx="305.887" cy="149.223" r="0.226432" fill="white" fill-opacity="0.4"/>
<circle cx="177.891" cy="177.229" r="0.254351" fill="white" fill-opacity="0.4"/>
<circle cx="260.822" cy="41.6812" r="0.20072" fill="white" fill-opacity="0.5"/>
<circle cx="178.863" cy="30.2435" r="0.261098" fill="white" fill-opacity="0.6"/>
<circle cx="69.7959" cy="87.917" r="0.248995" fill="white" fill-opacity="0.4"/>
<circle cx="31.1191" cy="116.314" r="0.283158" fill="white" fill-opacity="0.3"/>
<circle cx="250.491" cy="43.4225" r="0.217447" fill="white" fill-opacity="0.5"/>
<circle cx="216.606" cy="62.6231" r="0.253958" fill="white" fill-opacity="0.3"/>
<circle cx="196.255" cy="74.663" r="0.219615" fill="white" fill-opacity="0.4"/>
<circle cx="145.892" cy="120.314" r="0.259646" fill="white" fill-opacity="0.4"/>
<circle cx="121.923" cy="118.771" r="0.247092" fill="white" fill-opacity="0.4"/>
<circle cx="192.091" cy="172.267" r="0.274999" fill="white" fill-opacity="0.5"/>
<circle cx="202.565" cy="175.073" r="0.206097" fill="white" fill-opacity="0.5"/>
<circle cx="262.618" cy="120.518" r="0.270435" fill="white" fill-opacity="0.5"/>
<circle cx="50.042" cy="129.296" r="0.233404" fill="white" fill-opacity="0.6"/>
<circle cx="79.7157" cy="128.501" r="0.203951" fill="white" fill-opacity="0.3"/>
<circle cx="183.035" cy="77.7288" r="0.219006" fill="white" fill-opacity="0.6"/>
<circle cx="155.808" cy="55.4892" r="0.209938" fill="white" fill-opacity="0.4"/>
<circle cx="32.4405" cy="103.644" r="0.26079" fill="white" fill-opacity="0.6"/>
<circle cx="263.7" cy="32.6765" r="0.203861" fill="white" fill-opacity="0.5"/>
<circle cx="217.206" cy="35.0538" r="0.280374" fill="white" fill-opacity="0.4"/>
<circle cx="183.996" cy="131.398" r="0.226279" fill="white" fill-opacity="0.6"/>
<circle cx="226.138" cy="185.61" r="0.203989" fill="white" fill-opacity="0.5"/>
<circle cx="272.966" cy="97.7119" r="0.270521" fill="white" fill-opacity="0.5"/>
<circle cx="188.815" cy="46.7158" r="0.252948" fill="white" fill-opacity="0.5"/>
<circle cx="76.5375" cy="27.1938" r="0.27969" fill="white" fill-opacity="0.5"/>
<circle cx="90.839" cy="74.2706" r="0.210091" fill="white" fill-opacity="0.6"/>
<circle cx="275.071" cy="160.188" r="0.270482" fill="white" fill-opacity="0.6"/>
<circle cx="57.4859" cy="127.923" r="0.200721" fill="white" fill-opacity="0.6"/>
<circle cx="305.918" cy="140.629" r="0.257469" fill="white" fill-opacity="0.4"/>
<circle cx="239" cy="37.8786" r="0.23014" fill="white" fill-opacity="0.4"/>
<circle cx="176.758" cy="151.569" r="0.274087" fill="white" fill-opacity="0.6"/>
<circle cx="88.9947" cy="127.811" r="0.279858" fill="white" fill-opacity="0.4"/>
<circle cx="106.387" cy="121.246" r="0.230463" fill="white" fill-opacity="0.5"/>
<circle cx="230.787" cy="84.4706" r="0.251801" fill="white" fill-opacity="0.4"/>
<circle cx="295.961" cy="72.9848" r="0.266101" fill="white" fill-opacity="0.3"/>
<circle cx="51.7665" cy="28.2958" r="0.231341" fill="white" fill-opacity="0.5"/>
<circle cx="209.331" cy="70.6785" r="0.260511" fill="white" fill-opacity="0.5"/>
<circle cx="122.305" cy="37.7012" r="0.246134" fill="white" fill-opacity="0.6"/>
<circle cx="41.1959" cy="77.3307" r="0.203732" fill="white" fill-opacity="0.3"/>
<circle cx="253.557" cy="113.374" r="0.217417" fill="white" fill-opacity="0.4"/>
<circle cx="303.023" cy="177.597" r="0.237361" fill="white" fill-opacity="0.4"/>
<circle cx="142.639" cy="90.4202" r="0.260028" fill="white" fill-opacity="0.5"/>
<circle cx="44.3265" cy="47.1136" r="0.267876" fill="white" fill-opacity="0.5"/>
<circle cx="154.348" cy="68.7879" r="0.285907" fill="white" fill-opacity="0.5"/>
<circle cx="233.091" cy="169.567" r="0.258719" fill="white" fill-opacity="0.6"/>
<circle cx="63.443" cy="172.404" r="0.220314" fill="white" fill-opacity="0.5"/>
<circle cx="159.478" cy="82.7276" r="0.235376" fill="white" fill-opacity="0.6"/>
<circle cx="140.536" cy="132.395" r="0.266511" fill="white" fill-opacity="0.4"/>
<circle cx="137.256" cy="68.7463" r="0.244373" fill="white" fill-opacity="0.5"/>
<circle cx="167.896" cy="39.98" r="0.224167" fill="white" fill-opacity="0.5"/>
<circle cx="237.817" cy="72.5316" r="0.1957" fill="white" fill-opacity="0.3"/>
<circle cx="229.977" cy="187.723" r="0.207764" fill="white" fill-opacity="0.5"/>
<circle cx="126.334" cy="29.6585" r="0.252272" fill="white" fill-opacity="0.5"/>
<circle cx="259.343" cy="146.952" r="0.257177" fill="white" fill-opacity="0.6"/>
<circle cx="103.283" cy="139.414" r="0.192918" fill="white" fill-opacity="0.3"/>
<circle cx="38.9501" cy="29.8564" r="0.258726" fill="white" fill-opacity="0.4"/>
<circle cx="83.179" cy="109.538" r="0.214143" fill="white" fill-opacity="0.5"/>
<circle cx="114.06" cy="35.9701" r="0.239652" fill="white" fill-opacity="0.4"/>
<circle cx="89.3819" cy="113.823" r="0.284257" fill="white" fill-opacity="0.5"/>
<circle cx="75.9201" cy="51.4943" r="0.240429" fill="white" fill-opacity="0.5"/>
<circle cx="72.6927" cy="94.6419" r="0.26689" fill="white" fill-opacity="0.5"/>
<circle cx="62.7343" cy="179.74" r="0.273393" fill="white" fill-opacity="0.6"/>
<circle cx="84.522" cy="39.5864" r="0.213369" fill="white" fill-opacity="0.4"/>
<circle cx="256.651" cy="48.0537" r="0.249007" fill="white" fill-opacity="0.5"/>
<circle cx="44.2768" cy="42.4643" r="0.218251" fill="white" fill-opacity="0.5"/>
<circle cx="121.766" cy="197.762" r="0.281133" fill="white" fill-opacity="0.5"/>
<circle cx="147.823" cy="187.792" r="0.276347" fill="white" fill-opacity="0.6"/>
<circle cx="156.772" cy="159.749" r="0.213742" fill="white" fill-opacity="0.5"/>
<circle cx="49.3151" cy="77.5944" r="0.276001" fill="white" fill-opacity="0.4"/>
<circle cx="88.7344" cy="165.496" r="0.211008" fill="white" fill-opacity="0.5"/>
<circle cx="58.3102" cy="187.963" r="0.255508" fill="white" fill-opacity="0.4"/>
<circle cx="112.488" cy="83.0738" r="0.198779" fill="white" fill-opacity="0.4"/>
<circle cx="80.5071" cy="182.566" r="0.225846" fill="white" fill-opacity="0.6"/>
<circle cx="173.25" cy="27.701" r="0.210816" fill="white" fill-opacity="0.6"/>
<circle cx="207.98" cy="44.0331" r="0.253758" fill="white" fill-opacity="0.4"/>
<circle cx="206.448" cy="49.5904" r="0.252513" fill="white" fill-opacity="0.4"/>
<circle cx="167.515" cy="136.571" r="0.225723" fill="white" fill-opacity="0.6"/>
<circle cx="248.764" cy="163.586" r="0.217252" fill="white" fill-opacity="0.3"/>
<circle cx="102.706" cy="151.296" r="0.1943" fill="white" fill-opacity="0.4"/>
<circle cx="288.443" cy="123.347" r="0.223876" fill="white" fill-opacity="0.5"/>
<circle cx="175.021" cy="183.362" r="0.254937" fill="white" fill-opacity="0.3"/>
<circle cx="148.715" cy="195.389" r="0.207061" fill="white" fill-opacity="0.4"/>
<circle cx="248.205" cy="54.3616" r="0.232741" fill="white" fill-opacity="0.6"/>
<circle cx="62.8464" cy="110.475" r="0.194034" fill="white" fill-opacity="0.3"/>
<circle cx="162.372" cy="60.3287" r="0.258359" fill="white" fill-opacity="0.6"/>
<circle cx="296.864" cy="149.208" r="0.211986" fill="white" fill-opacity="0.4"/>
<circle cx="245.354" cy="60.3223" r="0.252032" fill="white" fill-opacity="0.5"/>
<circle cx="116.541" cy="50.5253" r="0.228424" fill="white" fill-opacity="0.3"/>
<circle cx="269.721" cy="138.35" r="0.279862" fill="white" fill-opacity="0.5"/>
<circle cx="30.7118" cy="93.6747" r="0.258643" fill="white" fill-opacity="0.6"/>
<circle cx="135.177" cy="69.5442" r="0.274632" fill="white" fill-opacity="0.5"/>
<circle cx="82.4275" cy="50.5252" r="0.228326" fill="white" fill-opacity="0.4"/>
<circle cx="209.465" cy="183.119" r="0.20333" fill="white" fill-opacity="0.6"/>
<circle cx="253.76" cy="51.6745" r="0.229171" fill="white" fill-opacity="0.5"/>
<circle cx="167.679" cy="134.628" r="0.198515" fill="white" fill-opacity="0.3"/>
<circle cx="135.144" cy="151.728" r="0.241476" fill="white" fill-opacity="0.4"/>
<circle cx="269.517" cy="142.364" r="0.270506" fill="white" fill-opacity="0.4"/>
<circle cx="76.697" cy="108.039" r="0.24776" fill="white" fill-opacity="0.3"/>
<circle cx="54.2553" cy="57.2319" r="0.227975" fill="white" fill-opacity="0.3"/>
<circle cx="53.8858" cy="143.296" r="0.241255" fill="white" fill-opacity="0.6"/>
<circle cx="267.797" cy="57.4693" r="0.273988" fill="white" fill-opacity="0.4"/>
<circle cx="121.367" cy="148.685" r="0.265358" fill="white" fill-opacity="0.6"/>
<circle cx="234.432" cy="131.432" r="0.260056" fill="white" fill-opacity="0.6"/>
<circle cx="197.394" cy="68.9018" r="0.206503" fill="white" fill-opacity="0.5"/>
<circle cx="215.6" cy="161.274" r="0.205487" fill="white" fill-opacity="0.6"/>
<circle cx="161.963" cy="71.2271" r="0.232958" fill="white" fill-opacity="0.5"/>
<circle cx="218.467" cy="192.7" r="0.201664" fill="white" fill-opacity="0.4"/>
<circle cx="103.345" cy="104.021" r="0.255383" fill="white" fill-opacity="0.4"/>
<circle cx="88.9137" cy="67.359" r="0.198851" fill="white" fill-opacity="0.4"/>
<circle cx="185.312" cy="147.085" r="0.198563" fill="white" fill-opacity="0.4"/>
<circle cx="190.712" cy="193.31" r="0.235691" fill="white" fill-opacity="0.4"/>
<circle cx="238.281" cy="137.965" r="0.277018" fill="white" fill-opacity="0.4"/>
<circle cx="190.171" cy="94.8352" r="0.268781" fill="white" fill-opacity="0.4"/>
<circle cx="80.7216" cy="101.136" r="0.245003" fill="white" fill-opacity="0.6"/>
<circle cx="40.6647" cy="57.6334" r="0.246691" fill="white" fill-opacity="0.4"/>
<circle cx="212.72" cy="50.6931" r="0.204808" fill="white" fill-opacity="0.5"/>
<circle cx="217.579" cy="33.7021" r="0.270505" fill="white" fill-opacity="0.5"/>
<circle cx="41.9634" cy="136.356" r="0.20172" fill="white" fill-opacity="0.4"/>
<circle cx="62.5089" cy="28.88" r="0.23936" fill="white" fill-opacity="0.4"/>
<circle cx="95.8524" cy="121.061" r="0.239109" fill="white" fill-opacity="0.3"/>
<circle cx="228.064" cy="120.652" r="0.212624" fill="white" fill-opacity="0.4"/>
<circle cx="122.696" cy="74.5025" r="0.25057" fill="white" fill-opacity="0.3"/>
<circle cx="303.178" cy="61.0433" r="0.205447" fill="white" fill-opacity="0.4"/>
<circle cx="85.6858" cy="134.276" r="0.228786" fill="white" fill-opacity="0.5"/>
<circle cx="32.1978" cy="58.9419" r="0.213425" fill="white" fill-opacity="0.4"/>
<circle cx="95.6445" cy="196.363" r="0.222668" fill="white" fill-opacity="0.3"/>
<circle cx="279.439" cy="184.681" r="0.231914" fill="white" fill-opacity="0.4"/>
<circle cx="128.969" cy="53.1795" r="0.199012" fill="white" fill-opacity="0.3"/>
<circle cx="166.53" cy="180.627" r="0.201537" fill="white" fill-opacity="0.6"/>
<circle cx="142.832" cy="74.9023" r="0.265613" fill="white" fill-opacity="0.5"/>
<circle cx="280.6" cy="66.4437" r="0.240589" fill="white" fill-opacity="0.4"/>
<circle cx="161.937" cy="157.25" r="0.206616" fill="white" fill-opacity="0.5"/>
<circle cx="167.534" cy="154.222" r="0.245417" fill="white" fill-opacity="0.4"/>
<circle cx="144.099" cy="52.0204" r="0.192288" fill="white" fill-opacity="0.6"/>
<circle cx="292.823" cy="82.1156" r="0.197669" fill="white" fill-opacity="0.3"/>
<circle cx="37.7691" cy="90.9566" r="0.222218" fill="white" fill-opacity="0.5"/>
<circle cx="120.777" cy="85.8084" r="0.24977" fill="white" fill-opacity="0.3"/>
<circle cx="183.242" cy="102.47" r="0.237833" fill="white" fill-opacity="0.5"/>
<circle cx="89.5455" cy="50.7447" r="0.256459" fill="white" fill-opacity="0.5"/>
<circle cx="294.977" cy="140.231" r="0.242524" fill="white" fill-opacity="0.4"/>
<circle cx="305.881" cy="58.7582" r="0.221108" fill="white" fill-opacity="0.3"/>
<circle cx="175.24" cy="30.265" r="0.282576" fill="white" fill-opacity="0.6"/>
<circle cx="89.6898" cy="44.9477" r="0.209377" fill="white" fill-opacity="0.5"/>
<circle cx="31.6053" cy="165.097" r="0.195111" fill="white" fill-opacity="0.4"/>
<circle cx="33.3349" cy="108.948" r="0.198167" fill="white" fill-opacity="0.4"/>
<circle cx="278.884" cy="44.9854" r="0.247078" fill="white" fill-opacity="0.4"/>
<circle cx="173.469" cy="158.626" r="0.238788" fill="white" fill-opacity="0.4"/>
<circle cx="144.708" cy="83.0991" r="0.224067" fill="white" fill-opacity="0.5"/>
</g>
<g opacity="0.9">
<g opacity="0.1">
<g clip-path="url(#clip0_2011_16355)">
<path d="M1.87891 25.2305V637.555" stroke="white" stroke-width="0.464381"/>
<path d="M31.5996 25.2305V637.555" stroke="white" stroke-width="0.464381"/>
<path d="M61.3203 25.2305V637.555" stroke="white" stroke-width="0.464381"/>
<path d="M91.041 25.2305V637.555" stroke="white" stroke-width="0.464381"/>
<path d="M120.76 25.2305V637.555" stroke="white" stroke-width="0.464381"/>
<path d="M150.48 25.2305V637.555" stroke="white" stroke-width="0.464381"/>
<path d="M180.201 25.2305V637.555" stroke="white" stroke-width="0.464381"/>
<path d="M209.922 25.2305V637.555" stroke="white" stroke-width="0.464381"/>
<path d="M239.643 25.2305V637.555" stroke="white" stroke-width="0.464381"/>
<path d="M269.363 25.2305V637.555" stroke="white" stroke-width="0.464381"/>
<path d="M299.082 25.2305V637.555" stroke="white" stroke-width="0.464381"/>
<path d="M328.803 25.2305V637.555" stroke="white" stroke-width="0.464381"/>
</g>
<g clip-path="url(#clip1_2011_16355)">
<path d="M1.87891 25.2305L405.969 25.2305" stroke="white" stroke-width="0.464381"/>
<path d="M1.87891 54.9512L405.969 54.9512" stroke="white" stroke-width="0.464381"/>
<path d="M1.87891 84.6709L405.969 84.6709" stroke="white" stroke-width="0.464381"/>
<path d="M1.87891 114.392L405.969 114.392" stroke="white" stroke-width="0.464381"/>
<path d="M1.87891 144.112L405.969 144.112" stroke="white" stroke-width="0.464381"/>
<path d="M1.87891 173.832L405.969 173.832" stroke="white" stroke-width="0.464381"/>
<path d="M1.87891 203.553L405.969 203.553" stroke="white" stroke-width="0.464381"/>
</g>
</g>
</g>
</g>
<defs>
<radialGradient id="paint0_diamond_2011_16355" cx="0" cy="0" r="1" gradientUnits="userSpaceOnUse" gradientTransform="translate(168.371 96.9056) rotate(90) scale(121.974 283.767)">
<stop stop-color="white"/>
<stop offset="1" stop-color="#D9D9D9" stop-opacity="0"/>
</radialGradient>
<clipPath id="clip0_2011_16355">
<rect width="404.09" height="261.209" fill="white" transform="translate(1.87891 25.2305)"/>
</clipPath>
<clipPath id="clip1_2011_16355">
<rect width="404.09" height="261.209" fill="white" transform="translate(1.87891 25.2305)"/>
</clipPath>
</defs>
</svg>
